<svg xmlns="http://www.w3.org/2000/svg" viewBox="0 0 74.2 73.59"><defs><style>.cls-1{fill:#8c2e53;}.cls-2{fill:#f5f0dd;}</style></defs><g id="Layer_2" data-name="Layer 2"><g id="Layer_1-2" data-name="Layer 1"><path class="cls-1" d="M9.84,9a56.59,56.59,0,0,0-6,8.48C-.85,25.92-.49,35.9,1,45.25c1,6.48,3.39,13,8.11,17.55,3.18,3.07,7.23,5.07,11.23,7s8,3.63,12.3,3.82c5.12.23,10-1.82,14.75-3.83,5.18-2.21,10.41-4.45,15-7.68S71.06,54.49,73,49.18c2.83-8,.49-16.88-3.21-24.48C65.92,16.83,60.5,9.52,53.09,4.88,47.36,1.29,40.43,0,33.75,0c-5.09,0-16.37.31-20,4.4C12.45,5.9,11.12,7.41,9.84,9Z"/><path class="cls-2" d="M30.16,5.21a23.61,23.61,0,0,0-11.28,5,31.54,31.54,0,0,0-7.75,9.66A52.78,52.78,0,0,0,6.7,31.52,38.29,38.29,0,0,0,5.31,43.78a24.34,24.34,0,0,0,1.15,6,24.85,24.85,0,0,0,2.7,5.56,34.61,34.61,0,0,0,8.57,9A29.32,29.32,0,0,0,29,69.55a19.65,19.65,0,0,0,12.16-1.08c3.8-1.65,7-4.34,10.46-6.76A50.43,50.43,0,0,1,57,58.4a30.22,30.22,0,0,0,5.19-3.33,11.79,11.79,0,0,0,3.41-4.9,31.25,31.25,0,0,0,1.5-6,38.61,38.61,0,0,0,.29-12.32A25.72,25.72,0,0,0,65.77,26a22,22,0,0,0-3.1-5.27,41.28,41.28,0,0,0-9.35-8.09c-3.49-2.26-7-4.68-10.85-6.15A25,25,0,0,0,30.16,5.21Zm0-.1A25.82,25.82,0,0,1,42.57,6.18c4,1.38,7.53,3.71,11.11,5.86a39.49,39.49,0,0,1,9.73,8.05,23.31,23.31,0,0,1,5,11.63,38.42,38.42,0,0,1-.28,12.66,32.59,32.59,0,0,1-1.61,6.15,12.74,12.74,0,0,1-3.72,5.26,30.18,30.18,0,0,1-5.39,3.38A48,48,0,0,0,52,62.35c-3.44,2.32-6.76,5-10.69,6.63a20.62,20.62,0,0,1-12.44.92,31.35,31.35,0,0,1-11.37-5.27A37.07,37.07,0,0,1,8.7,55.7a25.29,25.29,0,0,1-2.9-5.64,24.48,24.48,0,0,1-1.32-6.21A37.2,37.2,0,0,1,5.86,31.29,49,49,0,0,1,10.58,19.6a32.1,32.1,0,0,1,8.14-9.55,26.51,26.51,0,0,1,5.39-3.22A24.39,24.39,0,0,1,30.15,5.11Z"/><path class="cls-2" d="M31.58,46.65c.32.4.6.84,1,1.2a2,2,0,0,0,1.28.67A2.44,2.44,0,0,0,36,47a17.3,17.3,0,0,0,.79-2.88c.24-1,.51-2,.79-3s.62-2,.86-3a3.15,3.15,0,0,0,0-1.43A9.79,9.79,0,0,0,38,35.27,24.2,24.2,0,0,0,36.7,32.5,14,14,0,0,0,35.05,30c-.69-.74-1.46-1.47-2.28-1.28a3.89,3.89,0,0,0-1.27.55c-.2.13-.36.27-.55.41l-.49.5a8.63,8.63,0,0,0-1.39,2.55,16.54,16.54,0,0,0-.78,2.88,13.05,13.05,0,0,0,.08,5.87,13.88,13.88,0,0,0,1.46,2.66C30.39,45,31,45.81,31.58,46.65Zm-.08.05c-.61-.82-1.23-1.64-1.89-2.44a15.35,15.35,0,0,1-1.84-2.55,10.89,10.89,0,0,1-.53-6.32,12.2,12.2,0,0,1,2.51-5.87c.2-.2.4-.4.61-.58a8,8,0,0,1,.71-.48,4.78,4.78,0,0,1,1.59-.57,2.25,2.25,0,0,1,1.71.53,7.52,7.52,0,0,1,1.09,1.18A19.2,19.2,0,0,1,37,32.33c.47.93.9,1.87,1.31,2.82a12.27,12.27,0,0,1,.57,1.46A3.76,3.76,0,0,1,39,38.24c-.16,1.07-.4,2-.61,3.06s-.46,2-.73,3a11.22,11.22,0,0,1-1.1,3,2.89,2.89,0,0,1-2.78,1.5A2.41,2.41,0,0,1,32.43,48C32.09,47.55,31.81,47.12,31.5,46.7Z"/><path class="cls-2" d="M26.23,30.29a33,33,0,0,0-2.1,4.57,12.59,12.59,0,0,0-.79,4.86c.19,3.31,2.95,5.66,4.44,8.76a23.67,23.67,0,0,0,2.45,4.32,5.65,5.65,0,0,0,1.85,1.52,4.35,4.35,0,0,0,2.36.4,6.23,6.23,0,0,0,4.16-2.37,12.12,12.12,0,0,0,2.12-4.45A37.06,37.06,0,0,0,42,38a29.9,29.9,0,0,0-.39-4.93,9.49,9.49,0,0,0-.69-2.27,13.88,13.88,0,0,0-1.23-2.1,20.27,20.27,0,0,0-3.28-3.64,10.64,10.64,0,0,0-2-1.39,4.46,4.46,0,0,0-2.22-.6,3.56,3.56,0,0,0-2.15.83,8,8,0,0,0-1.58,1.88C27.61,27.21,27,28.8,26.23,30.29Zm-.09,0c.77-1.5,1.33-3.09,2.13-4.58a8.12,8.12,0,0,1,1.52-2.08,4.08,4.08,0,0,1,2.4-1.15,4.83,4.83,0,0,1,2.63.52A11.51,11.51,0,0,1,37,24.35a18.56,18.56,0,0,1,3.51,3.79,15.25,15.25,0,0,1,1.34,2.24,9.3,9.3,0,0,1,.77,2.54A31.49,31.49,0,0,1,43,38a33.08,33.08,0,0,1-1.71,10,13.86,13.86,0,0,1-2.38,4.51,7.07,7.07,0,0,1-4.39,2.5,5.41,5.41,0,0,1-4.67-1.91,22.84,22.84,0,0,1-2.76-4.29c-.76-1.48-1.79-2.76-2.71-4.21a8.87,8.87,0,0,1-1.62-4.92,12.92,12.92,0,0,1,1.16-5C24.55,33.21,25.35,31.73,26.14,30.25Z"/><path class="cls-2" d="M21,32c-1.07,2-2.21,4.12-2.29,6.42s1,4.41,2.06,6.41a51.06,51.06,0,0,0,8.07,11c.79.82,1.6,1.63,2.45,2.4a10.91,10.91,0,0,0,2.71,2,4.76,4.76,0,0,0,3.22.27,6.79,6.79,0,0,0,2.88-1.68,12.63,12.63,0,0,0,3.05-6c.61-2.22,1.09-4.48,1.55-6.74s.84-4.53,1.2-6.79a26.7,26.7,0,0,0,.32-6.78,11.79,11.79,0,0,0-2.45-6.09A31.59,31.59,0,0,0,38.9,21.6a17.24,17.24,0,0,0-5.57-3.66,4.5,4.5,0,0,0-3.09.09A7.66,7.66,0,0,0,27.61,20a25.27,25.27,0,0,0-3.68,5.75C22.89,27.76,22.06,29.92,21,32Zm-.09,0c1.05-2.05,1.87-4.21,2.81-6.32a26.64,26.64,0,0,1,3.44-6.07,7.9,7.9,0,0,1,2.81-2.26A5.34,5.34,0,0,1,33.59,17c2.41.67,4.21,2.33,6,3.78a30.66,30.66,0,0,1,5,4.94,12.74,12.74,0,0,1,2.54,6.62,25.94,25.94,0,0,1-.47,7c-.41,2.29-.91,4.54-1.44,6.79s-1.14,4.48-1.75,6.71A14.13,14.13,0,0,1,40.29,59a7.22,7.22,0,0,1-3,1.82,5.23,5.23,0,0,1-3.55-.15,11.46,11.46,0,0,1-2.95-2c-.89-.75-1.76-1.53-2.59-2.35a40.71,40.71,0,0,1-8-11.34c-1-2.07-2-4.33-1.76-6.71A16.15,16.15,0,0,1,20.86,31.91Z"/><path class="cls-2" d="M13.38,41.37c1.26,11.8,11.24,22.12,22.84,23.16a9.46,9.46,0,0,0,4.17-.73A13.18,13.18,0,0,0,44,61.42a29.4,29.4,0,0,0,5.47-6.87,20.27,20.27,0,0,0,2.74-8.3,30.78,30.78,0,0,0-.57-8.77c-.57-2.88-1.27-5.78-2-8.61a17.53,17.53,0,0,0-1.64-4,15.73,15.73,0,0,0-2.67-3.37,29,29,0,0,0-3.35-2.79,39.12,39.12,0,0,0-3.66-2.41,15,15,0,0,0-8.11-2.37,12.16,12.16,0,0,0-7.52,3.62,25.76,25.76,0,0,0-2.91,3.25,32.17,32.17,0,0,0-2.45,3.64A30.34,30.34,0,0,0,14,32.58,27.35,27.35,0,0,0,13.38,41.37Zm-.1,0a30.7,30.7,0,0,1,3.43-17.26,27.78,27.78,0,0,1,2.35-3.82A27.24,27.24,0,0,1,22,16.86a12.83,12.83,0,0,1,8.12-4,12.69,12.69,0,0,1,4.55.62,18.42,18.42,0,0,1,4.14,1.87,42,42,0,0,1,3.73,2.52A31.52,31.52,0,0,1,46,20.83a16.58,16.58,0,0,1,2.77,3.61,18.27,18.27,0,0,1,1.64,4.22c.39,1.45.68,2.9,1,4.35s.59,2.91.82,4.38a33.59,33.59,0,0,1,.38,8.9,22.33,22.33,0,0,1-2.79,8.43,31.61,31.61,0,0,1-2.46,3.73,27.63,27.63,0,0,1-2.93,3.38,13.9,13.9,0,0,1-3.7,2.61,10,10,0,0,1-4.47.92,23.53,23.53,0,0,1-15.74-8,28.79,28.79,0,0,1-4.85-7.47A27.77,27.77,0,0,1,13.28,41.38Z"/><path class="cls-2" d="M9.07,30.7A30.64,30.64,0,0,0,9,41.42a35,35,0,0,0,3.44,10.12,35.69,35.69,0,0,0,6.2,8.65A23.63,23.63,0,0,0,27.41,66a17.37,17.37,0,0,0,5.15,1,20.49,20.49,0,0,0,5.28-.56,28.63,28.63,0,0,0,9.77-4.27A29,29,0,0,0,59.67,45.05a29.54,29.54,0,0,0-2.79-20.67,27.94,27.94,0,0,0-16-13.11,28.6,28.6,0,0,0-5.16-1.19,29.24,29.24,0,0,0-5.29-.21,22.67,22.67,0,0,0-5.19.91,21.37,21.37,0,0,0-4.75,2.33A28.34,28.34,0,0,0,9.07,30.7Zm-.1,0a31.4,31.4,0,0,1,1.5-5.19,37.68,37.68,0,0,1,2.4-4.85,32.64,32.64,0,0,1,3.19-4.4,27.1,27.1,0,0,1,4-3.68A21,21,0,0,1,24.94,10a24.29,24.29,0,0,1,5.39-1.07,28.24,28.24,0,0,1,10.84,1.37,30.77,30.77,0,0,1,5,2.15,26.69,26.69,0,0,1,4.57,3,25,25,0,0,1,3.89,3.88,26.58,26.58,0,0,1,3,4.57,29.84,29.84,0,0,1,2.5,21.25A30.94,30.94,0,0,1,47.8,62.5,31.42,31.42,0,0,1,38,67a21.9,21.9,0,0,1-5.42.71,17.53,17.53,0,0,1-5.42-.93,23.42,23.42,0,0,1-9.09-6,33.77,33.77,0,0,1-6.14-9A35.58,35.58,0,0,1,8.76,41.46a36.1,36.1,0,0,1-.35-5.4A32.4,32.4,0,0,1,9,30.68Z"/><path class="cls-2" d="M65,59.59a39.49,39.49,0,0,0,5.35-18.72,42.22,42.22,0,0,0-4.15-19A32.07,32.07,0,0,0,61,13.66a16.44,16.44,0,0,0-3.7-3.16,27.31,27.31,0,0,0-4.45-2.06,28.36,28.36,0,0,1-4.45-2.21C47,5.39,45.56,4.49,44.08,3.8a11.13,11.13,0,0,0-4.69-1.17A29.82,29.82,0,0,0,34.51,3a87.85,87.85,0,0,0-9.67,1.89q-2.39.62-4.73,1.36a13.28,13.28,0,0,0-4.24,2.16c-2.49,2-4.12,4.93-6,7.64a45.77,45.77,0,0,0-4.69,8.56,32,32,0,0,0-1.89,9.52A85.09,85.09,0,0,0,3.42,44,45.92,45.92,0,0,0,4.79,53.7C5.68,56.82,7,60,9.48,62.19a0,0,0,0,1-.07.07,13.85,13.85,0,0,1-3.14-3.83,21.84,21.84,0,0,1-1.95-4.59A46,46,0,0,1,2.7,44a84.44,84.44,0,0,1-.33-9.94,31.36,31.36,0,0,1,1.87-9.84A44.47,44.47,0,0,1,9,15.5c.93-1.37,1.83-2.75,2.81-4.1a17.82,17.82,0,0,1,3.45-3.71,13.91,13.91,0,0,1,4.56-2.26C21.44,5,23,4.55,24.66,4.17a87.31,87.31,0,0,1,9.78-1.7,30.5,30.5,0,0,1,5-.27,12.2,12.2,0,0,1,4.82,1.28c1.51.72,2.89,1.64,4.3,2.49A25.78,25.78,0,0,0,53,8.12a28.24,28.24,0,0,1,4.53,2,16.88,16.88,0,0,1,3.9,3.13,32.24,32.24,0,0,1,5.55,8.27A45.45,45.45,0,0,1,70.21,31a37.32,37.32,0,0,1-5.15,28.68,0,0,0,0,1-.07,0A0,0,0,0,1,65,59.59Z"/><path class="cls-2" d="M32.12,33.23a30.32,30.32,0,0,0-1,3.15,12.43,12.43,0,0,0-.35,3.15,5.07,5.07,0,0,0,1,3,3.81,3.81,0,0,0,2.71,1.51l-.39.28c.07-1,.14-2,.18-2.94s0-2,.05-2.94A9.05,9.05,0,0,0,34,35.63a2.43,2.43,0,0,0-1.7-2s0,0,0-.06a0,0,0,0,1,0,0,2,2,0,0,1,1.49.51,3.88,3.88,0,0,1,.93,1.31,8.26,8.26,0,0,1,.58,3.06,20.48,20.48,0,0,1-.12,3,21.55,21.55,0,0,1-.5,3v.05a.31.31,0,0,1-.37.23h0a5.45,5.45,0,0,1-2.82-2A7.33,7.33,0,0,1,30,39.61a6.77,6.77,0,0,1,.36-3.46,9.91,9.91,0,0,1,1.69-3,.06.06,0,0,1,.07,0A.07.07,0,0,1,32.12,33.23Z"/></g></g></svg>