<svg xmlns="http://www.w3.org/2000/svg" viewBox="0 0 162.34 130.54"><defs><style>.cls-1{fill:#e7c274;}.cls-2{fill:#ddb366;}.cls-3{fill:#f4d59f;}.cls-4{fill:#918251;}.cls-5{fill:#7e7242;}.cls-6{fill:#e58013;}.cls-7{fill:#f99a22;}</style></defs><g id="Layer_2" data-name="Layer 2"><g id="Layer_1-2" data-name="Layer 1"><path class="cls-1" d="M81.28,25.14c6.79,1.18,13.78,1.67,19.88-1.26l.43-.22c-.42-2.47,1.17-5.18,3.13-6.95a17.65,17.65,0,0,1,5.85-3.44,13.44,13.44,0,0,0-4.73-3.55c-3.42-1.54-7.26-1.83-11-1.8-5.28,0-10.65.72-15.43,2.95a21.17,21.17,0,0,0-7.22,5.42,12.59,12.59,0,0,1,4.9,1.53C79.66,19.31,81.57,22.21,81.28,25.14Z"/><path class="cls-2" d="M102,25a4.33,4.33,0,0,1-.44-1.36l-.43.22c-6.1,2.93-13.09,2.44-19.88,1.26,0,.12,0,.25,0,.38A8,8,0,0,1,76,31.34l-.07,0a6.5,6.5,0,0,1-.09,3.33,22.32,22.32,0,0,1-1.23,3.73,17.88,17.88,0,0,1,12.3,3.77,13.38,13.38,0,0,1,1.95,2c4.52-4,10.17-6.58,16-6.13A13.09,13.09,0,0,1,110,33.46c-1.25-1.51-1.88-3.24-1-4.94,0-.1.12-.19.17-.28l-.65,0C106,28.08,103.2,27.25,102,25Z"/><path class="cls-1" d="M75.92,31.35c-.9-2.91-4.68-3.6-7.73-3.5-13,.42-23.58,7.56-30.18,17.58-7.22,10.94-9.7,25.31-5.39,38.14,3.46,10.31,12.21,19,22.43,22a31.08,31.08,0,0,1-4.49-6.67c-2.64-5.32-3.65-11.31-4-17.24-.55-9.32.54-19,4.91-27.22S63.87,39.55,73.15,38.52c.48-.06,1-.08,1.45-.1a22.32,22.32,0,0,0,1.23-3.73,6.5,6.5,0,0,0,.09-3.33Z"/><path class="cls-1" d="M156.77,41.49c-3.92-8.52-11-15.8-19.77-19-.81-.29-1.64-.53-2.48-.75-8.26-2.13-17.57-.53-24,5a6.93,6.93,0,0,0-1.35,1.46c0,.09-.12.18-.17.28-.88,1.7-.25,3.43,1,4.94l.15-.08c4.58-2.18,10-1.89,14.89-.65,16.24,4.09,29.25,18.82,31.29,35.44.88,7.14-.8,15.82-4.4,23.57,5.56-6.09,8-14.5,8.86-22.74C161.69,59.67,160.69,50,156.77,41.49Z"/><path class="cls-1" d="M75.92,31.35h0l.07,0a8,8,0,0,0,5.25-5.82c0-.13,0-.26,0-.38.29-2.93-1.62-5.83-4.19-7.32a12.59,12.59,0,0,0-4.9-1.53,21.81,21.81,0,0,0-4.12-.09A33,33,0,0,0,43.31,30.5,32.63,32.63,0,0,0,38,45.43c6.6-10,17.18-17.16,30.18-17.58C71.24,27.75,75,28.44,75.92,31.35Z"/><path class="cls-1" d="M109.14,28.24a6.93,6.93,0,0,1,1.35-1.46c6.46-5.55,15.77-7.15,24-5A21.71,21.71,0,0,0,126,14.09a20.13,20.13,0,0,0-15.4-.82,17.65,17.65,0,0,0-5.85,3.44c-2,1.77-3.55,4.48-3.13,7A4.33,4.33,0,0,0,102,25c1.17,2.23,4,3.06,6.46,3.2Z"/><path class="cls-1" d="M156.3,68.17c-2-16.62-15.05-31.35-31.29-35.44-4.92-1.24-10.31-1.53-14.89.65l-.15.08a13.09,13.09,0,0,0-5.16,4.63,17.19,17.19,0,0,1,2.33.33c5.08,1.13,9.41,4.57,12.6,8.67A68.35,68.35,0,0,1,129,64.38c5.11,13.37,7.62,34.55-3.12,46a21,21,0,0,1-1.67,1.6c12.24,1.23,22.21-8.44,27.71-20.27C155.5,84,157.18,75.31,156.3,68.17Z"/><path class="cls-1" d="M80.92,55.05c.48-1,1-2,1.49-2.86a31.17,31.17,0,0,1,6.44-8,13.38,13.38,0,0,0-1.95-2,17.88,17.88,0,0,0-12.3-3.77c-.49,0-1,0-1.45.1-9.28,1-17.32,7.68-21.69,15.92S46,72.34,46.55,81.66c.36,5.93,1.37,11.92,4,17.24a31.08,31.08,0,0,0,4.49,6.67,39.33,39.33,0,0,0,20.47,11.91,54.5,54.5,0,0,0,18.59.91L93,118.17C66.34,111.92,71.47,74.48,80.92,55.05Z"/><path class="cls-1" d="M129,64.38a68.35,68.35,0,0,0-9.24-17.29c-3.19-4.1-7.52-7.54-12.6-8.67a17.19,17.19,0,0,0-2.33-.33c-5.79-.45-11.44,2.11-16,6.13a31.17,31.17,0,0,0-6.44,8c-.51.9-1,1.85-1.49,2.86C71.47,74.48,66.34,111.92,93,118.17l1.07.22c9.9,2,22.29.41,30.08-6.38a21,21,0,0,0,1.67-1.6C136.6,98.93,134.09,77.75,129,64.38Z"/><path class="cls-3" d="M81.28,25.14a60.13,60.13,0,0,0,10.29.23,27.25,27.25,0,0,0,5-.85,21.64,21.64,0,0,0,4.57-1.84l-.59,1.16a7.32,7.32,0,0,1,.59-4.27,11.27,11.27,0,0,1,2.32-3.4,17.23,17.23,0,0,1,3.12-2.49,19.88,19.88,0,0,1,3.55-1.76l-.61,2.27a12.13,12.13,0,0,0-3.68-2.86,17,17,0,0,0-4.58-1.46,42.58,42.58,0,0,0-10.12-.36,34.17,34.17,0,0,0-9.91,1.93,21.4,21.4,0,0,0-8.34,5.4l-.55-1.4a14.07,14.07,0,0,1,3.56,1,10,10,0,0,1,3.07,2.08,8.79,8.79,0,0,1,2,3.06A6.79,6.79,0,0,1,81.28,25.14Zm0,0a6.83,6.83,0,0,0-.86-3.31,8.31,8.31,0,0,0-2.17-2.54,11,11,0,0,0-6.16-2.16L70.55,17l1-1.28a22.11,22.11,0,0,1,8.73-6.56,35,35,0,0,1,10.6-2.52,45.71,45.71,0,0,1,10.88.27,19.89,19.89,0,0,1,5.39,1.8,14.85,14.85,0,0,1,4.53,3.63L113,14l-2,.66A17.3,17.3,0,0,0,108,16a14.94,14.94,0,0,0-2.71,2,10.09,10.09,0,0,0-1.95,2.57,5.07,5.07,0,0,0-.62,2.89l.11.83-.7.33a21.07,21.07,0,0,1-5.15,1.66,26.52,26.52,0,0,1-5.32.42A44.65,44.65,0,0,1,81.28,25.14Z"/><path class="cls-3" d="M75.83,34.69a5.74,5.74,0,0,0-.27-3.63,4.34,4.34,0,0,0-2.7-2.14,11.31,11.31,0,0,0-3.58-.49,36.39,36.39,0,0,0-10.85,2.13,34.68,34.68,0,0,0-6.61,3.18,39.26,39.26,0,0,0-10.74,9.85,44.15,44.15,0,0,0-6.79,12.92,44.63,44.63,0,0,0-2.36,14.4,43.62,43.62,0,0,0,.64,7.3,42.77,42.77,0,0,0,1.94,7.05,35.8,35.8,0,0,0,8.06,12.22,34.55,34.55,0,0,0,12.48,8.09,31.7,31.7,0,0,1-13.48-7,35.16,35.16,0,0,1-9.22-12.4A41,41,0,0,1,29.09,71a45.73,45.73,0,0,1,9.75-29.1A39.59,39.59,0,0,1,50.65,31.73a35.41,35.41,0,0,1,14.79-4.42,38.57,38.57,0,0,1,3.88,0,11.66,11.66,0,0,1,3.84.88A5,5,0,0,1,76,30.88,6,6,0,0,1,75.83,34.69Z"/><path class="cls-3" d="M75.92,31.36a9.49,9.49,0,0,0,3.39-2.8,5.94,5.94,0,0,0,1.26-3.85,7.45,7.45,0,0,0-4.51-6.12,16.2,16.2,0,0,0-8.2-.94,31.77,31.77,0,0,0-8.38,2,34.08,34.08,0,0,0-14,9.9A36,36,0,0,0,38,45.43a29.61,29.61,0,0,1,5.6-17.35,32.9,32.9,0,0,1,6.57-6.71,35.27,35.27,0,0,1,8.24-4.56,33.84,33.84,0,0,1,9.22-2,22.65,22.65,0,0,1,4.79.18,13.36,13.36,0,0,1,4.69,1.51,9.7,9.7,0,0,1,3.65,3.43A7.88,7.88,0,0,1,82,24.76a6.89,6.89,0,0,1-2.1,4.35A8.93,8.93,0,0,1,75.92,31.36Z"/><path class="cls-3" d="M134.52,21.76a27.18,27.18,0,0,0-8.46-6.32,21.14,21.14,0,0,0-9.9-1.78,19.89,19.89,0,0,0-9.54,3A12.08,12.08,0,0,0,103,20.12a5.74,5.74,0,0,0-1,4.9,4.61,4.61,0,0,1-.9-2.68,7.5,7.5,0,0,1,.55-2.89,11.73,11.73,0,0,1,3.55-4.65A18.46,18.46,0,0,1,116,10.66a19.33,19.33,0,0,1,11.18,2.72A18.74,18.74,0,0,1,134.52,21.76Z"/><path class="cls-3" d="M151.9,91.74c2.53-7,4-14.45,3.4-21.67a41.41,41.41,0,0,0-7.78-19.95,44.27,44.27,0,0,0-7.31-8,41.47,41.47,0,0,0-9-6c-.79-.45-1.65-.75-2.48-1.12s-1.7-.65-2.56-.95a28.42,28.42,0,0,0-5.29-1.39,20.27,20.27,0,0,0-10.87.76,18.79,18.79,0,0,1,11-2.22,30,30,0,0,1,5.66,1,23.79,23.79,0,0,1,2.77.81c.9.34,1.83.6,2.69,1A39.91,39.91,0,0,1,142,40,45.1,45.1,0,0,1,150,48.37a44.14,44.14,0,0,1,5.43,10.22,39.52,39.52,0,0,1,2.25,11.34A42.75,42.75,0,0,1,151.9,91.74Z"/><path class="cls-3" d="M86.9,42.19a18.68,18.68,0,0,0-14.1-2.88A26.19,26.19,0,0,0,60,45.68a32.75,32.75,0,0,0-8.34,11.69,45.51,45.51,0,0,0-3.44,14.12A70.94,70.94,0,0,0,48.4,86.2a37.73,37.73,0,0,0,4.11,13.86,34.29,34.29,0,0,0,9.69,10.82,44.13,44.13,0,0,0,13.32,6.6,39,39,0,0,1-14.15-5.39,37.82,37.82,0,0,1-6-4.77,32,32,0,0,1-4.84-6.08,38.09,38.09,0,0,1-4.9-14.67,71.06,71.06,0,0,1-.39-15.36,47.13,47.13,0,0,1,3.83-15A33.78,33.78,0,0,1,58.45,43.9a26.82,26.82,0,0,1,14.16-6,21.06,21.06,0,0,1,7.67.66A15.88,15.88,0,0,1,86.9,42.19Z"/><path class="cls-3" d="M82.41,52.19A96.49,96.49,0,0,0,76.72,70.3a92.22,92.22,0,0,0-1.48,9.3,66.45,66.45,0,0,0-.43,9.34,47.22,47.22,0,0,0,1,9.21,31.64,31.64,0,0,0,3.1,8.59,23.26,23.26,0,0,0,5.84,7A26.85,26.85,0,0,0,93,118.17,22.09,22.09,0,0,1,76.9,107.94a30.5,30.5,0,0,1-3.85-9.16A46.85,46.85,0,0,1,71.81,89a66.43,66.43,0,0,1,2.65-19.27A60.05,60.05,0,0,1,82.41,52.19Z"/><path class="cls-3" d="M125.86,110.41a31.15,31.15,0,0,0,3.92-7.4c.24-.65.41-1.33.62-2l.3-1c.08-.33.14-.68.21-1l.43-2,.28-2.05a20.2,20.2,0,0,0,.18-2.06c0-.69.13-1.37.14-2.06,0-1.38.08-2.76,0-4.14a63.45,63.45,0,0,0-.79-8.25,82.11,82.11,0,0,0-4.22-16.1,87.22,87.22,0,0,0-7.17-15.26,51.45,51.45,0,0,1,9.33,14.36,66.69,66.69,0,0,1,3.1,8.08A71.89,71.89,0,0,1,134.09,78a50.5,50.5,0,0,1-.17,17.34,32.35,32.35,0,0,1-2.8,8.26A24.17,24.17,0,0,1,125.86,110.41Z"/><path class="cls-4" d="M90.07,5.52A6.52,6.52,0,0,0,91.78,4l1.84-2a2.4,2.4,0,0,0-.48-.87A3.39,3.39,0,0,0,91.21.34C89,0,81.79-.86,81.8,2.78c0,.12,0,.24,0,.36a12.48,12.48,0,0,0,5.73,2.75A4.45,4.45,0,0,0,90.07,5.52Z"/><path class="cls-5" d="M95.87,16.17c-1.09-4.41-1-9-2.05-13.45a6.13,6.13,0,0,0-.2-.7L91.78,4a6.52,6.52,0,0,1-1.71,1.48,4.45,4.45,0,0,1-2.52.37,12.48,12.48,0,0,1-5.73-2.75,7.67,7.67,0,0,0,1.37,3c2.7,4.32,3.11,11.25,2.54,16.2-.3,2.62-3,12-7.4,10.81a14.7,14.7,0,0,1,7.77,5.16,23.79,23.79,0,0,1,18.56-5.46C101,27.69,97.38,22.31,95.87,16.17Z"/><path class="cls-3" d="M151.9,91.74a34.42,34.42,0,0,0,6-12.3,57.27,57.27,0,0,0,1.9-13.53,59.59,59.59,0,0,0-1.1-13.55,43.73,43.73,0,0,0-4.53-12.63,37,37,0,0,0-8.32-10.4,30.93,30.93,0,0,0-11.59-6.43A28.72,28.72,0,0,0,121,22.34a25.23,25.23,0,0,0-6.45,2.15,23.17,23.17,0,0,0-3,1.74A8.67,8.67,0,0,0,109,28.52a9.08,9.08,0,0,1,2.29-2.65,24.5,24.5,0,0,1,2.84-2.1,25.43,25.43,0,0,1,6.51-2.86,28.8,28.8,0,0,1,14.26-.26,31.83,31.83,0,0,1,12.83,6.51,39.17,39.17,0,0,1,9.12,11.13,45.29,45.29,0,0,1,4.69,13.54,56.39,56.39,0,0,1,.65,14.2,53.38,53.38,0,0,1-2.83,13.86A31.28,31.28,0,0,1,151.9,91.74Z"/><path class="cls-6" d="M32.36,81.31a19.16,19.16,0,0,0,7.31,12.11,33.61,33.61,0,0,0,13.08,6,30.77,30.77,0,0,0,14.33.52c4.7-1.11,9.12-4,11.25-8.35,1.65-3.35,1.83-7.2,2-10.93.11-2.93.23-5.85.34-8.78a4.81,4.81,0,0,0-.41-2.69,3.88,3.88,0,0,0-1.56-1.35,7.69,7.69,0,0,0-1.19.72c-1.46,1.09-2.41,2.71-3.58,4.1-4,4.73-10.3,6.68-16.34,7.89-6.35,1.28-13,2-19.27.5a19.7,19.7,0,0,1-6.08-2.49A18.43,18.43,0,0,0,32.36,81.31Z"/><path class="cls-1" d="M41.08,124.38a33.66,33.66,0,0,1-14.42-12.47c-4.15-6.36-5-12.7-6-20-1-7-2.82-14.17-4-21.23a8.94,8.94,0,0,0,0-1.5c-.34-.4-.9.3-1.06.53a9,9,0,0,0-.67,1.06c-.2.37-.37.76-.57,1.14A18.24,18.24,0,0,1,10,77.43C8.26,79,6.32,80.33,4.68,82A17.82,17.82,0,0,0,.85,99.57a18.48,18.48,0,0,0,4.57,13.79,18.41,18.41,0,0,0,9,5.42c11.15,12.56,33.76,14.33,48.46,8.74,2.19-.83,4.35-1.74,6.49-2.69C60.16,127.76,49.92,128.28,41.08,124.38Z"/><path class="cls-7" d="M95.83,77A46.67,46.67,0,0,1,98.75,63.8c-1.49-.92-3.21.64-4.7,1.58-4.42,2.81-10.8.25-15.37,2.43a3.88,3.88,0,0,1,1.56,1.35,4.81,4.81,0,0,1,.41,2.69c-.11,2.93-.23,5.85-.34,8.78-.15,3.73-.33,7.58-2,10.93-2.13,4.33-6.55,7.24-11.25,8.35a30.77,30.77,0,0,1-14.33-.52,33.61,33.61,0,0,1-13.08-6,19.16,19.16,0,0,1-7.31-12.11,18.43,18.43,0,0,1-.14-2.78c.05-3,.68-6,.94-9a2.24,2.24,0,0,0-.33-1.71,2.28,2.28,0,0,0-1.9-.44l-12.3.85a2.4,2.4,0,0,0-1.79.66,1.71,1.71,0,0,0-.17.33,3,3,0,0,0,0,1.46c1.19,7.06,3.05,14.21,4,21.23,1,7.29,1.84,13.63,6,20a33.66,33.66,0,0,0,14.42,12.47c8.84,3.9,19.08,3.38,28.33.45A122.94,122.94,0,0,0,85.73,116a28.37,28.37,0,0,0,8.43-12C97.13,95.4,95.17,86,95.83,77Z"/><path class="cls-3" d="M55.48,87a1.34,1.34,0,0,0-.89.94,1.4,1.4,0,0,0,.87,1.4,4.07,4.07,0,0,0,1.74.25c.89,0,4.38.44,3.09-1.15A5.9,5.9,0,0,0,55.48,87Z"/><path class="cls-3" d="M62.75,91.55a1.31,1.31,0,0,1,1.37.08.93.93,0,0,1,.25.58,1.75,1.75,0,0,1-.72,1.5,4.06,4.06,0,0,1-1.58.68,11.84,11.84,0,0,1-3.25.31C59,93.39,61.61,92,62.75,91.55Z"/><path class="cls-3" d="M70.85,90.9a1.25,1.25,0,0,1,.92-.33.88.88,0,0,1,.65.91A2.12,2.12,0,0,1,72,92.6a7.1,7.1,0,0,1-4.14,2.79c-1.11.26.27-1.66.53-2A13.4,13.4,0,0,1,70.85,90.9Z"/><path class="cls-3" d="M53.09,89.68a3.49,3.49,0,0,1,1.77,1.53,1.22,1.22,0,0,1,.16.64,1.17,1.17,0,0,1-.85.92,2.78,2.78,0,0,1-2.34-.32,4.33,4.33,0,0,1-1.57-1.84C49.11,88.29,52,89.2,53.09,89.68Z"/><path class="cls-3" d="M53,95.54a2.43,2.43,0,0,1,2.35.25A1.5,1.5,0,0,1,55.54,98a2.14,2.14,0,0,1-1.84.32,9.79,9.79,0,0,1-1.51-.37C50.16,97.21,51.7,96,53,95.54Z"/><path class="cls-3" d="M49.59,93.06a1.18,1.18,0,0,1-.11,1.34c-1.09,1.45-3.3.78-4.79.57a.72.72,0,0,1-.6-.32c-.15-.34.24-.67.58-.84C45.8,93.24,48.51,91.45,49.59,93.06Z"/><path class="cls-3" d="M61.24,96.51a1.73,1.73,0,0,1,1.69-.18,1.07,1.07,0,0,1,.29,1.32,1.75,1.75,0,0,1-1.12.88,5.14,5.14,0,0,1-1.46.14C57.73,98.68,59.71,97.3,61.24,96.51Z"/><path class="cls-3" d="M11.62,114.45a22.45,22.45,0,0,1-2.73-8.87,25.61,25.61,0,0,1,.83-9.37,64.61,64.61,0,0,1,3.47-8.58,36.2,36.2,0,0,0,3-8.55,22.12,22.12,0,0,1-1.49,9.13c-1,2.92-2.22,5.7-3,8.54a31.06,31.06,0,0,0-1.2,8.75A37.21,37.21,0,0,0,11.62,114.45Z"/><path class="cls-3" d="M1.59,97.89A11.84,11.84,0,0,1,3,91a29.26,29.26,0,0,1,4-5.81c1.51-1.75,3-3.43,4.4-5.19a22.33,22.33,0,0,0,3.37-5.86,13.42,13.42,0,0,1-2.07,6.73A39.89,39.89,0,0,1,8.5,86.47a59.12,59.12,0,0,0-4.18,5.29A17.71,17.71,0,0,0,1.59,97.89Z"/></g></g></svg>