<svg xmlns="http://www.w3.org/2000/svg" viewBox="0 0 183.47 169.38"><defs><style>.cls-1{fill:#7bc178;}.cls-2{fill:#f2f5e0;}.cls-3{fill:none;stroke:#f2f5e0;stroke-linecap:round;stroke-linejoin:round;stroke-width:0.99px;}.cls-4{fill:#41a66a;}.cls-5{fill:#d14e74;}</style></defs><g id="Layer_2" data-name="Layer 2"><g id="Layer_1-2" data-name="Layer 1"><path class="cls-1" d="M72.44,127.74c1.13-1.88,3-3.25,4-5.23,1.23-2.53.79-5.75,2.44-8,1.38-1.89,3.92-2.71,5.16-4.69.94-1.52.94-3.43,1.53-5.11,1.58-4.58,6.86-6.53,11.5-7.9l12.34-3.65c2.17-.64,4.83-1.17,6.43.43,1.19,1.19,1.24,3.1.92,4.74-1.26,6.3-6.71,10.8-9.68,16.49-1.86,3.55-2.75,7.58-4.84,11C99.62,130.05,95.38,133,91.4,136c-7.55,5.74-14.68,12.26-19.76,20.27a6.93,6.93,0,0,1-2,2.4,2.22,2.22,0,0,1-2.88-.29,3,3,0,0,1-.41-1.85c0-5.39,2.79-9,4.23-13.89S69.72,132.28,72.44,127.74Z"/><path class="cls-2" d="M58.23,167.45a53.71,53.71,0,0,0,7.31-8.52,97.51,97.51,0,0,0,5.76-9.8c3.49-6.77,6.52-13.84,10.35-20.55a65.88,65.88,0,0,1,6.5-9.58l.92-1.12,1-1.06c.67-.69,1.31-1.43,2-2.09,1.41-1.33,2.88-2.57,4.36-3.79a67.85,67.85,0,0,0,8.45-7.68c1.25-1.42,2.29-3,3.56-4.5a8.48,8.48,0,0,1,4.86-3.16.23.23,0,0,1,.26.19.22.22,0,0,1-.18.25,8,8,0,0,0-4.51,3.08c-1.21,1.45-2.22,3.09-3.48,4.57A67.52,67.52,0,0,1,97,111.62a56.24,56.24,0,0,0-14.2,17.61c-3.65,6.69-6.54,13.78-9.94,20.7A100.67,100.67,0,0,1,67.19,160a56.39,56.39,0,0,1-7.46,9,1.1,1.1,0,0,1-1.54-1.58h0Z"/><path class="cls-3" d="M104.09,105.31a9.8,9.8,0,0,0,5.29,0"/><path class="cls-3" d="M108.21,100a41.91,41.91,0,0,0,5.6.37c.4,0,.88-.06,1-.43"/><path class="cls-3" d="M102.8,105.24a30.42,30.42,0,0,1-1.36-6"/><path class="cls-3" d="M108.51,99.11a6.09,6.09,0,0,1,.41-3.72"/><path class="cls-3" d="M93.89,113.39c-.16-1.47-.62-2.89-.83-4.35a6.37,6.37,0,0,1,.61-4.3"/><path class="cls-3" d="M88.1,119.31a14.54,14.54,0,0,1-1.47-7"/><path class="cls-3" d="M95.72,113.88a20.34,20.34,0,0,0,7.09,0"/><path class="cls-3" d="M89.47,119.91c1.55.09,3.09.35,4.63.43a10.27,10.27,0,0,0,4.57-.64"/><path class="cls-3" d="M85.13,125.69a36.94,36.94,0,0,0,11.54-.35"/><path class="cls-3" d="M79,133.71a13.56,13.56,0,0,1-4.41-6.36"/><path class="cls-3" d="M80.92,133.16a4.27,4.27,0,0,0,2.42.58,32.34,32.34,0,0,0,6.66-.57"/><path class="cls-3" d="M76.14,142.55a8.66,8.66,0,0,0,5-.93,26.71,26.71,0,0,0,4.3-2.85"/><path class="cls-3" d="M75.93,140.69a2.39,2.39,0,0,1-1.25-1.39,18.45,18.45,0,0,1-1.31-3.9"/><path class="cls-4" d="M153.73,100.59c-2.88,3.85-4.91,8.3-7.77,12.17-3.88,5.26-9.15,9.29-14.08,13.58-.8.7-1.62,1.94-.86,2.67a1.79,1.79,0,0,0,1.42.32c3.08-.22,6-1.41,9-2,8.54-1.79,17.78.91,26-2.09a36.53,36.53,0,0,0,8.24-4.73,23.26,23.26,0,0,0,4.07-3.39c4-4.41,4.3-11,3.14-16.87a6.91,6.91,0,0,0-1.54-3.57,7.48,7.48,0,0,0-3-1.58C168.82,91.84,160.14,92,153.73,100.59Z"/><path class="cls-2" d="M127.78,128.57a58.24,58.24,0,0,0,12.45-4.94c3.86-2.22,7.45-5,11.31-7.51A121.14,121.14,0,0,1,176,103.93a.55.55,0,0,1,.39,1,120.67,120.67,0,0,0-24,12.44c-3.75,2.49-7.28,5.37-11.26,7.74a59.33,59.33,0,0,1-12.74,5.31,1,1,0,0,1-1.24-.63,1,1,0,0,1,.63-1.25Z"/><path class="cls-3" d="M161.7,110.38a14.14,14.14,0,0,1,3.29-6.81"/><path class="cls-3" d="M150.33,117.15l2.93-5.87a17.51,17.51,0,0,1,2.21-3.64,17.15,17.15,0,0,1,3.88-3"/><path class="cls-3" d="M168.4,113.32a15.38,15.38,0,0,1-6.1-1.18,3.84,3.84,0,0,1-.89-.57"/><path class="cls-4" d="M134.71,14.35c-.63,1.31-.59,3-1.76,3.92s-2.61.41-4,.53a6.29,6.29,0,0,0-4.92,4,13.48,13.48,0,0,0-.64,6.56,3.44,3.44,0,0,1-.11,1.75c-.63,1.46-2.72,1.26-4.22,1.79A4,4,0,0,0,117,38.28c.48.9,1.35,1.87.9,2.78-.26.53-.87.77-1.36,1.09A3.69,3.69,0,0,0,115.49,47c.42.68,1.07,1.2,1.48,1.88a1.77,1.77,0,0,1-.08,2.2,4.19,4.19,0,0,1-1.7.53c-2.08.57-2.63,3.24-2.53,5.39s.32,4.65-1.26,6.11a17.11,17.11,0,0,1-2,1.29,5.46,5.46,0,0,0-2.24,3.36,2.53,2.53,0,0,0,.78,2.67c1.27.83,2.81-.4,4.08-1.24,3.29-2.17,7.55-1.76,11.48-1.78s8.49-1,10.27-4.48c.8-1.58,1-3.67,2.61-4.51a6.48,6.48,0,0,1,3.26-.35,9.64,9.64,0,0,0,6.7-2.25,6.57,6.57,0,0,0,2.07-6.55,5,5,0,0,1-.46-2.23,3.25,3.25,0,0,1,1.13-1.7,29.35,29.35,0,0,1,3.37-2.73A16,16,0,0,0,156,39.87a4,4,0,0,0,.79-4.15,5.15,5.15,0,0,1-.53-1.08c-.34-1.48,1.65-2.22,3-2.94a5.64,5.64,0,0,0,2.93-4.54,2.8,2.8,0,0,0-.42-1.86c-.26-.35-.64-.61-.87-1-.61-1,.09-2.27.91-3.1s1.85-1.6,2-2.75c.26-1.51-1.13-2.87-2.6-3.32a33,33,0,0,0-4.57-.54,2.1,2.1,0,0,1-1.14-.46,2.87,2.87,0,0,1-.63-1.43,7,7,0,0,0-7.28-4.92,4.31,4.31,0,0,0-3.76,3c-.64,1.53-.1,2.22-1.8,2.07-1.31-.12-2-1.2-3.59-1A4.9,4.9,0,0,0,134.71,14.35Z"/><path class="cls-2" d="M107.09,68.76a54.8,54.8,0,0,0,14.46-10A96.39,96.39,0,0,0,133.18,45.3c3.51-4.81,6.73-9.85,9.95-14.89,1.56-2.49,2.92-5.19,4.56-7.73A29.5,29.5,0,0,1,150.44,19a12.86,12.86,0,0,1,3.66-2.91.56.56,0,0,1,.74.25.55.55,0,0,1-.24.73h0c-2.5,1.31-4.3,3.77-5.88,6.24s-2.88,5.18-4.46,7.78c-3.16,5.09-6.34,10.18-9.83,15.09A97.07,97.07,0,0,1,122.76,60a56.81,56.81,0,0,1-14.82,10.53,1,1,0,0,1-.86-1.78Z"/><path class="cls-3" d="M139.26,38.47l6.11-4.1c4.88-3.28,9.89-6.68,13.23-11.52"/><path class="cls-3" d="M134.62,45.43A58.9,58.9,0,0,0,151,38.37"/><path class="cls-3" d="M124.7,55.52A31.23,31.23,0,0,1,122,44.44"/><path class="cls-5" d="M77,44.8c.69-2.74.12-6-2.12-7.72-1.3-1-3-1.37-4.43-2.12a9.52,9.52,0,0,1-5-9.37c.24-2,1.5-4.22,3.54-4.5a4.72,4.72,0,0,1,4.08,2.07c1,1.26,1.59,2.76,2.49,4.08A2.24,2.24,0,0,0,77,28.35a1.7,1.7,0,0,0,1.37-.57c1.11-1.12,1-3,.32-4.43a23.37,23.37,0,0,0-2.82-3.78,15.19,15.19,0,0,1-2.64-5.4,2.77,2.77,0,0,1,.15-2.31,2.16,2.16,0,0,1,1.09-.73,3.78,3.78,0,0,1,3.53.64,5.7,5.7,0,0,0,1,.75c2.69,1.38,4.31-4,6.19-4.92,1.23-.62,2.67-1.29,3-2.62.19-.81-.08-1.74.34-2.46a2.24,2.24,0,0,1,.7-.67C91,.65,93.8,1.49,96,.74c1.67-.57,5.22-1.68,6,.84.38,1.23-.53,2.45-1.36,3.43C98.3,7.74,96,10.77,95.69,14.33a14.79,14.79,0,0,1,3.65,1,1.83,1.83,0,0,1,1,.8,1.48,1.48,0,0,1-.83,1.76,16.86,16.86,0,0,1-2,.64,4,4,0,0,0-2.59,3.64l7.63-1.36a1.48,1.48,0,0,1,1.4.22,1.23,1.23,0,0,1,.17,1.12c-.42,1.6-2,2.57-3.49,3.33-1.88,1-3.78,1.9-5.71,2.77a9.09,9.09,0,0,0-3.38,2.2,2.92,2.92,0,0,0-.17,3.71c1.24,1.32,3.43.56,5-.36a48.79,48.79,0,0,0,7.15-5.13c1.45-1.25,3.56-2.63,5-1.44,1.22,1,.81,3.07-.36,4.11a9.9,9.9,0,0,1-4.33,1.7c-1.66.4-3.57,1.25-3.79,2.94-.14,1,.31,2.15-.39,2.84a2,2,0,0,1-1.08.48c-2.45.53-5,.32-7.47.8a13.79,13.79,0,0,0-10.2,9c-.41,1.25-.58,2.78.32,3.74,1.11,1.17,3.13.71,4.4-.28s2.21-2.41,3.6-3.22c1-.58,2.48-.73,3.25.16s.28,2.63-.79,3.39A9.7,9.7,0,0,1,88,54.08a35.44,35.44,0,0,0-7.17,2.63,15.22,15.22,0,0,0-3.53,2,14.23,14.23,0,0,0-3.13,4.15,98.24,98.24,0,0,0-6,12.6C66.46,79.8,64.5,84.86,60,86.29c-.66.21-1.55.25-1.9-.36s.23-1.46.92-1.72,1.48-.21,2.19-.43c1.66-.54,2.43-2.39,3-4a65.12,65.12,0,0,0,3.42-12.9,21.64,21.64,0,0,0-2.06-13c-1-1.77-2.34-3.84-1.38-5.63a1.8,1.8,0,0,1,1.51-1c1.25,0,1.83,1.6,1.7,2.84s-.64,2.53-.17,3.69C69.85,60.17,76.57,46.45,77,44.8Z"/><path class="cls-5" d="M50.54,86.55c-1.14-1.45-2.5-2.85-3-4.65C46.59,78,50,74.63,51.64,71a6,6,0,0,0,.6-3.26,3,3,0,0,0-2-2.48c-2-.55-3.7,1.68-4.17,3.71s-.48,4.36-1.94,5.84c-3.51-3.1-3.85-8.74-1.8-12.95a16.83,16.83,0,0,0,1.77-4c.28-1.45-.26-3.21-1.64-3.73-1-.39-2.19,0-3.29.22s-2.5-.06-2.87-1.12.43-1.94.83-2.89c1-2.33-.16-5-1.3-7.24a2.77,2.77,0,0,0-1.21-1.43c-1.36-.57-2.51,1.15-3,2.55a4,4,0,0,0-.3,2.59c.37,1.07,1.56,1.65,2.08,2.65a2.54,2.54,0,0,1-2.86,3.4c-2.32-.75-2.44-4.37-4.63-5.43a4.68,4.68,0,0,1-1.38-.68,2,2,0,0,1-.49-1.28A30.88,30.88,0,0,0,24,41.69c-.27-1.22-1.49-2.4-2.65-1.94-1.77.68-1.19,4-3,4.54-1.36.42-2.46-1.3-2.46-2.72s.53-2.9,0-4.23a3.58,3.58,0,0,0-3.14-2.09A6.44,6.44,0,0,0,9,36.36C9,34.8,8.82,33,7.59,32.05a3.54,3.54,0,0,0-4.1.14A8.41,8.41,0,0,0,.92,35.71C.15,37.42-.44,39.47.44,41.12c1.23,2.31,4.61,2.63,6.06,4.81a1.76,1.76,0,0,1,.36,1c-.05,1.36-2,1.48-3.29,1.87A3.7,3.7,0,0,0,1,51.93,3.33,3.33,0,0,0,3.1,55.31c3.48,1.19,6.79-4.06,10.26-2.84,1.56.55,2.55,2.3,4.17,2.59.93.17,1.89-.18,2.83-.07a2.86,2.86,0,0,1,1.08,5.33,5.17,5.17,0,0,1-2,.53,20.52,20.52,0,0,1-6.63-.43C11.21,60.05,9.55,59.49,8,60s-2.57,2.72-1.34,3.78A3.33,3.33,0,0,0,8,64.36c3,.89,6.15,1.79,9.19,1.07C19.79,64.8,22.51,63,25,64.08c1.54.7,2.44,2.36,3.92,3.18,1.78,1,4.66.4,6,2.15.93,1.24,1,4.76-.86,5.17A2.9,2.9,0,0,1,31.91,74a4,4,0,0,0-2.06-.84c-.76,0-1.53.76-1.25,1.46a1.35,1.35,0,0,0,.66.63c1.29.69,2.86.37,4.32.32a5.68,5.68,0,0,1,3.84,1,2.89,2.89,0,0,1,.83,3.62,3.39,3.39,0,0,1-3.73,1c-1.34-.35-2.53-1.13-3.84-1.58-1-.35-3.31-1-4.34-.42-1.64.83-1.25,2.14-.19,2.89,1.25.88,4.64.74,6.06.5A19.57,19.57,0,0,1,36.12,82a4.42,4.42,0,0,1,4.25,3.85c.13,2.09-2,4.1-4,3.53-.52,1.7,1.23,3.18,2.76,4.11,3.13,1.9,6.51,1.08,9.05,4.2a18.08,18.08,0,0,1,1,20.8,2.19,2.19,0,0,0-.55,1.65c.27,1,1.76,1,2.6.36,2.38-1.7,2.25-5.16,2.78-7.73s1.35-5,1.48-7.6C55.82,98.49,54.75,91.92,50.54,86.55Z"/><path class="cls-2" d="M66.81,72.09l7.47-16.64L78,47.13,79.89,43c.62-1.38,1.24-2.75,1.74-4.16a18.74,18.74,0,0,0,1-4.3c.17-1.47.2-3,.26-4.5a51.14,51.14,0,0,1,1-9.13,27.38,27.38,0,0,1,3.28-8.58,19.31,19.31,0,0,1,6.37-6.56.18.18,0,0,1,.24.06.19.19,0,0,1,0,.25,18.87,18.87,0,0,0-6.08,6.54,26.63,26.63,0,0,0-3,8.44,51.13,51.13,0,0,0-.8,9c0,1.51,0,3-.16,4.6a19.83,19.83,0,0,1-1,4.57c-.49,1.47-1.1,2.88-1.69,4.28l-1.77,4.2-3.55,8.4-7.1,16.8a1,1,0,0,1-1.3.53,1,1,0,0,1-.52-1.3Z"/><path class="cls-2" d="M51.86,108.77a20.37,20.37,0,0,0-1.11-10.49,79.22,79.22,0,0,0-4.58-10l-5.06-10-2.53-5a21.07,21.07,0,0,1-2-5.36c-.19-.94-.32-1.85-.53-2.73a8.1,8.1,0,0,0-.39-1.27,7.7,7.7,0,0,0-.54-1.21,14.21,14.21,0,0,0-3.45-4.1c-2.79-2.37-6.11-4.17-9-6.64-1.42-1.23-2.73-2.56-4.13-3.76a23.81,23.81,0,0,0-4.6-3A15.43,15.43,0,0,1,9.4,41.85c-.61-.72-1.1-1.51-1.7-2.2a3.34,3.34,0,0,0-2.21-1.34.19.19,0,0,1-.16-.19A.17.17,0,0,1,5.51,38,3.71,3.71,0,0,1,8,39.39c.64.71,1.15,1.49,1.75,2.18a15.11,15.11,0,0,0,4.48,3.13,23.75,23.75,0,0,1,4.75,3c1.46,1.19,2.79,2.5,4.21,3.68,2.82,2.36,6.15,4.08,9.09,6.48A15.11,15.11,0,0,1,36,62.22a8,8,0,0,1,.62,1.33,8.35,8.35,0,0,1,.45,1.39c.24.93.4,1.85.6,2.74a19.47,19.47,0,0,0,2,5l2.62,4.93,5.24,9.87a80,80,0,0,1,4.86,10.18,22.22,22.22,0,0,1,1.38,11.45,1,1,0,1,1-1.94-.35Z"/></g></g></svg>