<svg xmlns="http://www.w3.org/2000/svg" viewBox="0 0 73.68 109.89"><defs><style>.cls-1{fill:none;stroke:#7e7242;stroke-linecap:round;stroke-linejoin:round;stroke-width:0.88px;}.cls-2{fill:#f2f5e0;}.cls-3{fill:#8c2e53;}.cls-4{fill:#f4d59f;}</style></defs><g id="Layer_2" data-name="Layer 2"><g id="Layer_1-2" data-name="Layer 1"><path class="cls-1" d="M21.71,92.25A7.94,7.94,0,0,1,21.93,95a2.62,2.62,0,0,1-1.6,2.12,14.9,14.9,0,0,1-1.65.24,3.37,3.37,0,0,0-2.21,2,8.24,8.24,0,0,0-.52,3"/><path class="cls-1" d="M29.26,96.05c-.54,1-1.08,2.32-.48,3.33.44.77,1.45,1.16,1.71,2,.41,1.3-1.18,2.41-1.27,3.77,0,.6.21,1.25,0,1.8"/><path class="cls-1" d="M25.73,95.09a2.07,2.07,0,0,1,.62,2.38,7.58,7.58,0,0,1-1.44,2.21c-1.26,1.56-1.72,4.06-.18,5.66a2.26,2.26,0,0,1,.47.56.52.52,0,0,1-.12.66"/><path class="cls-1" d="M24.24,95.07a1.56,1.56,0,0,1-.14,1.83,9.72,9.72,0,0,1-1.45,1.34c-1,1-1.67,2.72-.76,3.83.3.36.73.6,1,1,1,1.13.34,3-.94,3.81a7.47,7.47,0,0,0-1.13.67,1.73,1.73,0,0,0-.52,1.62c.06.24.43.46.48.22"/><path class="cls-1" d="M23.08,94c-1,.61-.76,2-.81,3.15a5.33,5.33,0,0,1-1.49,3.46,3.92,3.92,0,0,0-1.23,1.53c-.22.78.22,1.75-.3,2.38a1,1,0,0,1-1.54-1.16"/><path class="cls-1" d="M25.72,95.43a3.13,3.13,0,0,1,.5,2.7c-.2.92-.63,1.78-.91,2.69s-.34,2,.44,2.55c.41.27,1,.31,1.25.75s-.08,1.33.43,1.57"/><path class="cls-1" d="M20.76,93c.54.26.3,1.22-.29,1.36A1.37,1.37,0,0,1,19,93.48a4.9,4.9,0,0,0-.49-1.09c-.25-.32-.77-.47-1-.17"/><path class="cls-1" d="M27.07,95.55a2,2,0,0,1,.84,2,20.46,20.46,0,0,0-.35,2.31,3.21,3.21,0,0,0,2.26,3c.79.23,1.88.32,2,1.13a4.21,4.21,0,0,1,0,.79c0,.26.12.56.38.61"/><path class="cls-1" d="M29.25,95.58a.89.89,0,0,1,.89.59c.17.34.22.73.37,1.09a2,2,0,0,0,2.27,1.14c.36-.08.69-.26,1-.31a.8.8,0,0,1,.9.44"/><path class="cls-2" d="M35.25,95.79a30,30,0,0,1-5.36.08c-1.5-.2-2.91-.85-4.46-1a3.92,3.92,0,0,1-1.7-.34c-.82-.47-1.11-1.53-1.86-2.12a10.26,10.26,0,0,0-2.48-.94c-1.43-.62-2.26-2.08-3.2-3.32a45.94,45.94,0,0,0-5-5,37.82,37.82,0,0,1-9-13.71C-5.25,50.26,7.58,27.54,26,20.2c5.4-2.14,11.38-3.22,16-6.81a17.69,17.69,0,0,0,6-8.91C48.46,2.85,48.78,1,50.14,0c.5,1.18,2.14,1.19,3.4,1L57.21.49a1.82,1.82,0,0,1,1.06.05c.94.45.5,1.87,0,2.78a33.69,33.69,0,0,0-4,10.19,9.81,9.81,0,0,0-.11,4.69,10.92,10.92,0,0,0,2,3.51c6.62,8.79,14.85,17.13,17,27.92a32.65,32.65,0,0,1,.35,9.72A40.68,40.68,0,0,1,35.25,95.79Z"/><path class="cls-3" d="M73.13,49.63C71,38.84,62.77,30.5,56.15,21.71a10.92,10.92,0,0,1-2-3.51,9.81,9.81,0,0,1,.11-4.69,33.69,33.69,0,0,1,4-10.19c.53-.91,1-2.33,0-2.78A1.25,1.25,0,0,0,57.9.45c-1.09,3.22-3.21,6.2-4.3,9.48a16.72,16.72,0,0,0,1.45,13.52c2.13,3.61,5.2,6.57,7.33,10.22a42.91,42.91,0,0,1,5.83,16.24c1.1,9.32-2.13,18.69-7.61,26.16C55,83.72,46.8,88.72,38.25,92.53c-5.08,2.27-9.82,2.78-14.77,0-1.78-1-3.45-2.31-5.42-2.84a7.48,7.48,0,0,0-.94-.2,5.92,5.92,0,0,0,2.26,2.05,10.17,10.17,0,0,1,2.49.94c.75.59,1,1.65,1.86,2.12a3.92,3.92,0,0,0,1.7.34c1.55.11,3,.76,4.46,1a30,30,0,0,0,5.36-.08A40.68,40.68,0,0,0,73.48,59.35,32.65,32.65,0,0,0,73.13,49.63Z"/><path class="cls-3" d="M25.53,93.38a83.71,83.71,0,0,0-.79-9.64,28.83,28.83,0,0,0-1.11-4.67c-.5-1.5-1.18-3-1.64-4.56a21.47,21.47,0,0,1-.92-4.83,25.81,25.81,0,0,1,.18-4.9A67.83,67.83,0,0,1,23,55.19,53.18,53.18,0,0,1,26.24,46a46.82,46.82,0,0,1,5.07-8.29c2-2.58,4.28-4.87,6.44-7.25a25.88,25.88,0,0,0,5.32-7.94.25.25,0,0,1,.47.17h0A6.19,6.19,0,0,0,43.34,25c0,.77.14,1.55.23,2.34.19,1.61.23,3.18.35,4.76.22,3.15.41,6.33.46,9.5s.13,6.33.35,9.48a26.14,26.14,0,0,1-.93,9.55A37.16,37.16,0,0,1,40,69.42a85.57,85.57,0,0,1-5.31,7.93c-1.87,2.56-3.86,5-5.61,7.65A18.54,18.54,0,0,0,27,89.19a8,8,0,0,0-.22,4.63s0,0,0,.05,0,0,0,0a8.11,8.11,0,0,1,0-4.73,17.14,17.14,0,0,1,2-4.34c1.73-2.69,3.66-5.19,5.47-7.79,3.64-5.15,7.06-10.56,8.72-16.61a28.58,28.58,0,0,0,.87-4.59,28,28,0,0,0,0-4.67c-.19-3.17-.21-6.35-.26-9.51s-.17-6.32-.31-9.49c-.09-1.58-.1-3.18-.25-4.72-.08-.79-.17-1.58-.2-2.39a6.48,6.48,0,0,1,.28-2.45l.46.18a26.38,26.38,0,0,1-5.52,8,83,83,0,0,0-6.47,7.19,45.78,45.78,0,0,0-7.88,17.45A74.11,74.11,0,0,0,22,64.86a24.68,24.68,0,0,0-.23,4.77,20.29,20.29,0,0,0,.85,4.68c.43,1.54,1.07,3,1.55,4.59a29.85,29.85,0,0,1,1,4.78,73.08,73.08,0,0,1,.43,9.69,0,0,0,1,1-.09,0Z"/><path class="cls-3" d="M25.41,93.41c-.66-.71-1.35-1.38-2-2.14A8.1,8.1,0,0,1,22,88.69c-.68-1.81-1.39-3.61-2-5.44A57.69,57.69,0,0,1,17.21,72a53.12,53.12,0,0,1-.1-11.62,35.55,35.55,0,0,1,2.64-11.29,41.65,41.65,0,0,1,6.53-9.62c2.51-2.93,5-5.86,7.59-8.75a98.16,98.16,0,0,0,7.29-8.92,24.57,24.57,0,0,0,4.43-10.49,0,0,0,0,1,0,0,.07.07,0,0,1,0,0,23,23,0,0,1-4,10.86,78.6,78.6,0,0,1-7.18,9.13C32,34.21,29.46,37.1,26.9,40a43.63,43.63,0,0,0-6.72,9.29,29.66,29.66,0,0,0-2.76,11.11,46.94,46.94,0,0,0,.51,11.48A74.73,74.73,0,0,0,20.67,83c.59,1.83,1.18,3.67,1.8,5.49a8.25,8.25,0,0,0,1.21,2.56c.55.78,1.2,1.5,1.79,2.26a0,0,0,0,1-.06.06Z"/><path class="cls-3" d="M18,75.69a23.88,23.88,0,0,1-5.67-14.64,30.84,30.84,0,0,1,.91-7.91,38.05,38.05,0,0,1,2.66-7.48A31.23,31.23,0,0,1,20.25,39a20.75,20.75,0,0,1,2.86-2.84,16.61,16.61,0,0,1,3.48-2.06C27.8,33.49,29,33,30.15,32.38a18,18,0,0,0,3.21-2.16,57.2,57.2,0,0,0,5.58-5.54,0,0,0,0,1,.07,0,0,0,0,0,1,0,.05,41.14,41.14,0,0,1-5.2,6,19.51,19.51,0,0,1-3.25,2.38c-1.17.68-2.41,1.18-3.58,1.75a17.08,17.08,0,0,0-3.31,2,19.53,19.53,0,0,0-2.8,2.66,37.19,37.19,0,0,0-4.51,6.39,26.57,26.57,0,0,0-2.79,7.33,26.23,26.23,0,0,0-.48,7.8,29.17,29.17,0,0,0,5,14.63s0,0,0,.06S18,75.71,18,75.69Z"/><path class="cls-3" d="M21.92,91.54a66.73,66.73,0,0,0-5.07-11.11c-1-1.78-2.09-3.51-3-5.36-.48-.92-.83-1.9-1.23-2.85s-.7-2-.94-3a36.16,36.16,0,0,1-1-6.1c0-1-.14-2.05-.1-3.08V58.55L10.62,57A50.11,50.11,0,0,1,13,45a40.84,40.84,0,0,1,5.43-11.07,24.82,24.82,0,0,1,9.41-8c1.89-.88,3.84-1.51,5.68-2.32a19,19,0,0,0,5-3.24A52.9,52.9,0,0,0,46.32,11s0,0,.06,0,0,0,0,.06A46.1,46.1,0,0,1,39,20.82a20,20,0,0,1-5.15,3.51c-1.88.89-3.84,1.5-5.65,2.37a25.24,25.24,0,0,0-9.12,7.69,41.45,41.45,0,0,0-5.64,10.72A41.44,41.44,0,0,0,11.72,51a37.57,37.57,0,0,0-.61,12.15,37.32,37.32,0,0,0,1.25,5.94c.25,1,.63,1.92,1,2.88s.76,1.87,1.21,2.78c.88,1.82,1.94,3.57,2.92,5.37A53,53,0,0,1,22,91.51a0,0,0,0,1,0,.06S21.92,91.56,21.92,91.54Z"/><path class="cls-3" d="M17.86,89.3a64.1,64.1,0,0,1-6.78-9.78A39.15,39.15,0,0,1,6.82,68.36a46.14,46.14,0,0,1-.68-11.9,48,48,0,0,1,2.15-11.7,37.3,37.3,0,0,1,5.43-10.64c.64-.77,1.22-1.59,1.91-2.32l2.13-2.13c.77-.65,1.58-1.25,2.37-1.87A8.84,8.84,0,0,1,21.39,27l1.3-.77a32.34,32.34,0,0,1,5.45-2.46,27.71,27.71,0,0,0,5.06-3,32.36,32.36,0,0,0,9.15-7.39s0,0,.07,0a0,0,0,0,1,0,.06,29.92,29.92,0,0,1-8.85,7.91c-.82.52-1.6,1.13-2.43,1.7a16.09,16.09,0,0,1-2.67,1.46A35.62,35.62,0,0,0,23.13,27a29,29,0,0,0-8.76,7.64A38.4,38.4,0,0,0,8.75,44.91,40.91,40.91,0,0,0,7.53,68.2c1.72,7.7,5.85,14.59,10.4,21,0,0,0,0,0,.06S17.87,89.32,17.86,89.3Z"/><path class="cls-3" d="M43.18,23a22.07,22.07,0,0,1,2.64-5.16.23.23,0,0,1,.32-.06.22.22,0,0,1,.1.2v0c-.45,6.93,3.45,13.2,4.07,20.21.38,3.47.36,6.94.43,10.4a47.15,47.15,0,0,1-.63,10.4,31.91,31.91,0,0,1-3.9,9.7,73.88,73.88,0,0,1-6,8.52C38,80,35.83,82.65,33.64,85.34l-3.32,4a25.43,25.43,0,0,0-3,4.17s0,0-.06,0a0,0,0,0,1,0,0A24,24,0,0,1,30,89.07l3.13-4.14c2.12-2.74,4.21-5.5,6.36-8.21a93.83,93.83,0,0,0,6-8.41,34.22,34.22,0,0,0,4.08-9.39,41.93,41.93,0,0,0,.91-10.27,71.14,71.14,0,0,0-.68-10.33,77,77,0,0,0-2.63-10c-1-3.31-1.79-6.82-1.37-10.34l.42.16a25.45,25.45,0,0,0-2.93,4.93,0,0,0,0,1-.06,0A.07.07,0,0,1,43.18,23Z"/><path class="cls-3" d="M43.94,20.7a14.52,14.52,0,0,1,3.24-7.35.27.27,0,0,1,.37,0,.25.25,0,0,1,.09.23h0A28.15,28.15,0,0,0,49.05,24.7c.54,1.81,1.18,3.6,1.87,5.37L53,35.41a55.26,55.26,0,0,1,3.17,11,30.2,30.2,0,0,1-.55,11.44,38.21,38.21,0,0,1-4.34,10.66,58,58,0,0,1-6.84,9.26,94.16,94.16,0,0,1-8.14,8.09c-1.45,1.25-2.92,2.47-4.43,3.64-.75.6-1.53,1.15-2.3,1.72l-1.16.83c-.35.26-.76.67-.57,1.11a0,0,0,1,1-.08,0,.73.73,0,0,1,.06-.73,2,2,0,0,1,.48-.56l1.11-.9,2.19-1.83C33,88,34.45,86.68,35.83,85.38a113.33,113.33,0,0,0,7.92-8.19,65.7,65.7,0,0,0,6.76-9.11A41,41,0,0,0,55,57.72a28.34,28.34,0,0,0,.84-11.26,42.61,42.61,0,0,0-3.34-10.87l-2.27-5.25c-.71-1.78-1.4-3.57-2-5.41a27,27,0,0,1-1.18-11.44l.46.21a15.25,15.25,0,0,0-3.55,7,0,0,0,1,1-.09,0Z"/><path class="cls-3" d="M50.21,7.14c-.58,4.22-1.29,8.51-.49,12.65A18.5,18.5,0,0,0,52,25.62c1.06,1.83,2.23,3.63,3.23,5.54A48.3,48.3,0,0,1,60.76,56a29.57,29.57,0,0,1-3.68,12.31A34.44,34.44,0,0,1,48.8,78.2c-3.35,2.74-7,5-10.42,7.5a62.27,62.27,0,0,0-9.77,8.2,0,0,0,0,1-.07,0,.06.06,0,0,1,0-.06A54,54,0,0,1,38,85.15c3.41-2.58,7-5,10.25-7.64a36.36,36.36,0,0,0,8.14-9.6,29.94,29.94,0,0,0,3.92-12,37,37,0,0,0-.91-12.66,47.54,47.54,0,0,0-4.78-11.78c-1-1.87-2.21-3.62-3.26-5.51a19.33,19.33,0,0,1-2.27-6.08c-.71-4.34.18-8.64,1.06-12.79,0,0,0,0,.05,0A.07.07,0,0,1,50.21,7.14Z"/><path class="cls-3" d="M55.61,1.64A33.61,33.61,0,0,0,51.71,15a18.89,18.89,0,0,0,.94,6.84,34.37,34.37,0,0,0,3,6.33c1.15,2.05,2.42,4,3.6,6.1a53.77,53.77,0,0,1,3.1,6.39A38.14,38.14,0,0,1,65,54.59a35.74,35.74,0,0,1-11,25.6,41.57,41.57,0,0,1-11.83,7.89c-4.3,2-8.75,3.58-13,5.61a0,0,0,0,1-.06,0,0,0,0,0,1,0-.06c4.15-2.28,8.55-4.06,12.75-6.15a43.57,43.57,0,0,0,11.5-7.92,37.43,37.43,0,0,0,8-11.38,35.84,35.84,0,0,0,3.17-13.57A33.53,33.53,0,0,0,62,40.81C60.31,36.4,57.45,32.63,55,28.58a32.13,32.13,0,0,1-3.06-6.46A20.18,20.18,0,0,1,51,15a31,31,0,0,1,4.5-13.4s0,0,.06,0A0,0,0,0,1,55.61,1.64Z"/><path class="cls-3" d="M15.58,86.91A38.56,38.56,0,0,1,4.05,67.26a45,45,0,0,1,1-22.81C5.63,42.61,6.3,40.8,7,39a36.86,36.86,0,0,1,2.54-5.21,20.46,20.46,0,0,1,8.66-7.67c3.43-1.81,7.08-3,10.57-4.54A43.25,43.25,0,0,0,33.88,19a22.34,22.34,0,0,0,4.39-3.61s0,0,.06,0a0,0,0,0,1,0,.06,21.29,21.29,0,0,1-4.22,3.93,37.78,37.78,0,0,1-5,2.83C25.6,23.88,22,25.19,18.65,27c-.86.42-1.64.94-2.45,1.42A26.85,26.85,0,0,0,14,30.05a17.19,17.19,0,0,0-3.68,4.2,43.72,43.72,0,0,0-2.62,5C6.86,41,6.14,42.8,5.52,44.6A36.48,36.48,0,0,0,3.4,55.79,39.43,39.43,0,0,0,4.76,67.08,45,45,0,0,0,15.64,86.85s0,0,0,.06S15.6,86.93,15.58,86.91Z"/><path class="cls-4" d="M25.38,90.71c1.36-4.15.94-8.56.3-12.8s-1.31-8.65-.77-13a27.68,27.68,0,0,1,1.58-6.36q1.1-3.08,2.3-6.1a74.49,74.49,0,0,1,5.74-11.69,15,15,0,0,1,2.08-2.59,1.3,1.3,0,0,1,1-.35,1.4,1.4,0,0,1,.9.48,3.82,3.82,0,0,1,.76,1.59,22.49,22.49,0,0,1,.88,6.52A48.39,48.39,0,0,1,38,59.28a122,122,0,0,0-3.08,12.61A26.11,26.11,0,0,1,32.52,78a44.69,44.69,0,0,1-3.15,5.71l-.07,0a48.22,48.22,0,0,0,2.81-5.84,27.11,27.11,0,0,0,2.09-6.07c.36-2.11.7-4.3,1.22-6.41s1.1-4.2,1.66-6.29a53.11,53.11,0,0,0,2.2-12.67A23.69,23.69,0,0,0,38.57,40,3.13,3.13,0,0,0,38,38.69a.65.65,0,0,0-1-.11,14.64,14.64,0,0,0-2,2.42,56.59,56.59,0,0,0-5.86,11.53c-.79,2-1.48,4.07-2.12,6.14A28.29,28.29,0,0,0,25.63,65a53.5,53.5,0,0,0,.71,12.86,41.8,41.8,0,0,1,.4,6.53,18.37,18.37,0,0,1-1.28,6.39Z"/><path class="cls-4" d="M27.09,68.42a25.76,25.76,0,0,1,1.23-8.31c.45-1.34,1-2.62,1.58-3.91a4.68,4.68,0,0,1,1.23-1.77A2.25,2.25,0,0,1,33.29,54a2.48,2.48,0,0,1,1.3,1.86c.16.69.31,1.38.42,2.08a28.29,28.29,0,0,1,.38,4.22,26.29,26.29,0,0,1-1.27,8.32H34a53.81,53.81,0,0,0,.42-8.3c0-1.37-.11-2.75-.27-4.12-.08-.68-.17-1.37-.28-2a2,2,0,0,0-.82-1.57,1.76,1.76,0,0,0-1.78.23,3.7,3.7,0,0,0-1.15,1.63,32.58,32.58,0,0,0-1.14,4c-.7,2.68-1.31,5.37-1.84,8.12Z"/><path class="cls-4" d="M26.53,77.42a24.18,24.18,0,0,1,.25-2.7,16.41,16.41,0,0,1,.58-2.66,14.18,14.18,0,0,1,1.18-2.49,12.6,12.6,0,0,1,.75-1.15c.15-.17.24-.39.53-.54a.78.78,0,0,1,.86.21,1.59,1.59,0,0,1,.35.73c.06.22.11.44.15.67.09.45.16.9.21,1.36a16.82,16.82,0,0,1,.08,2.75,14.61,14.61,0,0,1-1.36,5.29l-.08,0a46,46,0,0,0,.51-5.31c0-.88.06-1.76,0-2.64l-.08-1.33a3.25,3.25,0,0,0-.18-1.18.36.36,0,0,0-.35-.17c-.13,0-.29.22-.43.38a5.37,5.37,0,0,0-.74,1.09,10.21,10.21,0,0,0-.73,2.55,34,34,0,0,1-1.44,5.19Z"/></g></g></svg>