<svg xmlns="http://www.w3.org/2000/svg" viewBox="0 0 162.33 226.52"><defs><style>.cls-1{fill:#83d082;}.cls-2{fill:#41a66a;}.cls-3{fill:#439162;}.cls-4{fill:none;stroke:#7e7242;stroke-linecap:round;stroke-linejoin:round;stroke-width:0.97px;}.cls-5{fill:#f2f5e0;}</style></defs><g id="Layer_2" data-name="Layer 2"><g id="Layer_1-2" data-name="Layer 1"><path class="cls-1" d="M82.48,55.52q6.83-19.86,12.89-40c.74-2.46,1.41-5.34-.07-7.44-1-1.45-2.8-2.11-4.47-2.69C86.85,4,81.54,3,79.18,6.51A10,10,0,0,0,78,9.62L68.7,46.43q1.5,12.45,2.23,25Z"/><path class="cls-2" d="M120.16,15.35a7.27,7.27,0,0,0-3.57-1.94c-2.83-.4-5.1,2.18-6.78,4.5L82.48,55.52,70.93,71.41q-5.42,7.43-10.81,14.87c1.27,2.85,2.63,5.66,4.14,8.41C74.4,82,82.88,68,95.34,57.15c4.15-3.63,8.8-6.65,12.86-10.38.77-.71,1.51-1.44,2.23-2.19,3.78-6.76,7.82-13.31,13.13-18.88a8.15,8.15,0,0,0,2.32-3.37C126.59,19.63,121.92,16.83,120.16,15.35Z"/><path class="cls-3" d="M140.33,22.9c-3.26-1.65-7.32-2.16-10.53-.41a15.45,15.45,0,0,0-3.91,3.4c-5.39,6-9.84,12.9-15.46,18.69-.72.75-1.46,1.48-2.23,2.19-4.06,3.73-8.71,6.75-12.86,10.38C82.88,68,74.4,82,64.26,94.69c-2.24,2.81-4.57,5.55-7,8.19a58.84,58.84,0,0,0,4.82,8c2.7-2.82,5.26-5.79,7.77-8.78,3.85-4.59,7.68-9.29,12.4-13a95.85,95.85,0,0,1,12-7.44c6.57-3.7,12.94-7.74,19.13-12q17.75-19.88,35.39-39.83C146.22,27.19,143.59,24.54,140.33,22.9Z"/><path class="cls-3" d="M68.7,46.43A328.82,328.82,0,0,0,61.59,7a9.82,9.82,0,0,0-1.17-3.14C58.35.77,46.84-2,44.88,2c-1.09,2.2-.52,4.82,0,7.21a443.53,443.53,0,0,1,10.44,65c1.41,4.11,3,8.15,4.75,12.11q5.4-7.44,10.81-14.87Q70.19,58.89,68.7,46.43Z"/><path class="cls-3" d="M60.12,86.28c-1.77-4-3.34-8-4.75-12.11C47.81,52.08,44.55,28.07,36.52,6,35.36,2.79,34.06.52,30.19.61,27,.68,18.33-.51,17.12,3c-.74,2.14,0,4.48.67,6.63A283.77,283.77,0,0,1,26.72,48.1c3.21,6.39,6.58,12.69,10.34,18.78,4.37,7.06,9.23,13.84,13.06,21.21,2.5,4.81,4.62,9.94,7.11,14.79,2.46-2.64,4.79-5.38,7-8.19C62.75,91.94,61.39,89.13,60.12,86.28Z"/><path class="cls-2" d="M57.23,102.88c-2.49-4.85-4.61-10-7.11-14.79-3.83-7.37-8.69-14.15-13.06-21.21C33.3,60.79,29.93,54.49,26.72,48.1q-2.59-5.16-5.08-10.38C16.85,27.62,11.67,23.85.29,22.6c-.73,1.76.05,3.75.82,5.49C7.38,42.27,13.65,56.47,20.94,70.15c9.55,17.91,21,35.43,26.62,54.7a14.83,14.83,0,0,1,1.09-1.58,38.8,38.8,0,0,1,6.08-5.5,80.92,80.92,0,0,0,7.32-6.9A58.84,58.84,0,0,1,57.23,102.88Z"/><path class="cls-4" d="M33.38,201.9c-2,1.34-4.76.46-7.09,1.11a27.93,27.93,0,0,0-2.59,1.1,9.22,9.22,0,0,1-6.66,0"/><path class="cls-4" d="M32.92,207.91c-3.22-.76-6.38,1.27-9.08,3.2q-2.64,1.9-5.3,3.79"/><path class="cls-4" d="M36.79,207.77A8.84,8.84,0,0,0,30.1,213a9.56,9.56,0,0,1-1,2.1c-.85,1.15-2.34,1.56-3.64,2.15S22.87,219,23,220.39"/><path class="cls-4" d="M40,207.06c.73,2.55-2.11,4.53-3.63,6.7-1.66,2.38-1.79,5.47-1.86,8.37"/><path class="cls-4" d="M42.48,211.09c1,1.66.41,3.85-.54,5.56s-2.23,3.32-2.54,5.26c-.22,1.37.07,2.86-.5,4.13"/><path class="cls-4" d="M47.19,211.09c1.36,1.06.81,3.18.91,4.9.17,3.21,2.92,5.6,5.44,7.59"/><path class="cls-4" d="M52.16,209.08c3.7,3.34,2.87,10.24,7.13,12.83"/><path class="cls-4" d="M54,207.07a6.44,6.44,0,0,1,4.48,5.75,6,6,0,0,0,.14,1.64,4.14,4.14,0,0,0,2,2"/><path class="cls-2" d="M162.3,47.79a3.11,3.11,0,0,0-1.54-1.72l-6.71-4.47c-1.45-1-3.11-2-4.8-1.58a6.52,6.52,0,0,0-3,2.06A238.93,238.93,0,0,1,113.4,69.62c-6.19,4.31-12.56,8.35-19.13,12a95.85,95.85,0,0,0-12,7.44c-4.72,3.69-8.55,8.39-12.4,13-2.51,3-5.07,6-7.77,8.78a80.92,80.92,0,0,1-7.32,6.9,38.8,38.8,0,0,0-6.08,5.5,14.83,14.83,0,0,0-1.09,1.58c-2.88,4.64-3.15,10.19-3.39,15.53-.29,6.58-1.72,13.19-3,19.71q-4.3,21.51-10.56,42.56a10.69,10.69,0,0,0-.66,4.59c.52,3.42,4.07,5.39,7.25,6.76,3.4,1.47,7,2.86,10.66,2.76s7.59-2.08,8.84-5.57c1.39-3.86-.75-8-1.61-12a36,36,0,0,1-.17-10.68,280,280,0,0,1,9.7-52A25.77,25.77,0,0,1,67.67,129c4.64-6.83,14.44-12.21,20.83-17.5q12.15-10,24.23-20.17Q136.9,71.1,160.78,50.54C161.61,49.82,162.53,48.87,162.3,47.79Z"/><path class="cls-5" d="M81.27,115.29c-8.19.64-15.06,6.68-23.14,8.13a53.26,53.26,0,0,1-9.87.37c-.24.35-.48.7-.7,1.06-2.88,4.64-3.15,10.19-3.39,15.53-.29,6.58-1.72,13.19-3,19.71q-4.3,21.51-10.56,42.56a10.69,10.69,0,0,0-.66,4.59c.52,3.42,4.07,5.39,7.25,6.76,3.4,1.47,7,2.86,10.66,2.76s7.59-2.08,8.84-5.57c1.39-3.86-.75-8-1.61-12a36,36,0,0,1-.17-10.68,280,280,0,0,1,9.7-52A25.77,25.77,0,0,1,67.67,129c3.57-5.25,10.18-9.64,16-13.8A23,23,0,0,0,81.27,115.29Z"/></g></g></svg>