<svg xmlns="http://www.w3.org/2000/svg" viewBox="0 0 177.48 134.42"><defs><style>.cls-1{fill:#2c7043;}.cls-2{fill:#439162;}.cls-3{fill:#92dd90;}.cls-4{fill:#aeeaac;}.cls-5{fill:#83d082;}.cls-6{fill:#377f51;}</style></defs><g id="Layer_2" data-name="Layer 2"><g id="Layer_1-2" data-name="Layer 1"><path class="cls-1" d="M3.39,60.56a16.21,16.21,0,0,1,3.13-4.43c4.4-4.94,9.12-10.09,15.44-12a8.43,8.43,0,0,1,4.58-.31A7.81,7.81,0,0,1,30,46c5,5.08,5.55,13.69,11.36,17.78a3.24,3.24,0,0,0,2.49.68c-.21-.3-.42-.59-.61-.89a35.41,35.41,0,0,1-6-20.87,28.24,28.24,0,0,1,5.67-15.65A28.81,28.81,0,0,0,35.78,26a36.12,36.12,0,0,0-10,1.47,35.26,35.26,0,0,0-11.91,5.32c-5,3.7-8.28,9.19-11.44,14.54C-4.19,58.48,4,76.36,11.85,84.84c.64.69,1.32,1.37,2,2L6.65,74.63C4.11,70.33,1.48,65.19,3.39,60.56Z"/><path class="cls-2" d="M43.81,64.47a3.24,3.24,0,0,1-2.49-.68C35.51,59.7,34.93,51.09,30,46a7.81,7.81,0,0,0-3.42-2.19,8.43,8.43,0,0,0-4.58.31c-6.32,1.91-11,7.06-15.44,12a16.21,16.21,0,0,0-3.13,4.43c-1.91,4.63.72,9.77,3.26,14.07l7.23,12.21A14.08,14.08,0,0,0,21,90.52c1.65.26,8.68.59,9.47-1.54.33-.87-.47-2.21-1.43-3.68-1.12-1.71-2.47-3.58-2.49-5a8.14,8.14,0,0,1,4.67-7.6c4.44-1.82,10.56.3,13.63-3.39A6.44,6.44,0,0,0,46,67.13,26,26,0,0,1,43.81,64.47Z"/><path class="cls-3" d="M97.37,79.05c-1-.14-1.51-1.16-1.73-2.1,0-.13,0-.27-.07-.4A11.79,11.79,0,0,0,95,78.09a36.49,36.49,0,0,0-.71,6.45,40.49,40.49,0,0,1-1.61,7.6,3.85,3.85,0,0,0-.11,2.9c.61,1.14,1.87,1.39,3.36,1.17l6.15-9.35c1.43-2.17,3.42-4.61,6-4.28s4.64,3.37,7,2.5c.9-.32,1.62-1.17,2.57-1.16a1.14,1.14,0,0,1,.33,0c2.42-3.73,4-8,7.16-11.18a17.6,17.6,0,0,1,1.44-1.3,5.84,5.84,0,0,1-3.18-3.22c-.37-1.12-.33-2.43-1.12-3.31-1-1-2.61-.92-4-.83a24.91,24.91,0,0,1-8.37-.9A59.33,59.33,0,0,1,99.6,77.88,2.85,2.85,0,0,1,97.37,79.05Z"/><path class="cls-3" d="M64,111.36a64.44,64.44,0,0,0,5.21-12.55c.06-.24.11-.49.17-.74a1.56,1.56,0,0,1-1.06-.18A2.78,2.78,0,0,1,67.5,97c-3.86-5.59-5.09-11.75-5.37-18.39a17.11,17.11,0,0,1,.7-6.72l-.15-.14a5.29,5.29,0,0,0-1.8-.79,12,12,0,0,1-3.33,1.17c-4.36.74-8.44-1.65-11.57-5a6.44,6.44,0,0,1-1.16,2.14c-3.07,3.69-9.19,1.57-13.63,3.39a8.14,8.14,0,0,0-4.67,7.6c0,1.46,1.37,3.33,2.49,5,6,4.76,11.13,10.86,16.06,16.85a33.75,33.75,0,0,1,4.78,6.92c2.07,4.44,2.18,9.79,5.16,13.68a4.88,4.88,0,0,0,2.39,1.71A6.09,6.09,0,0,1,58,123C59.92,119.08,62.09,115.27,64,111.36Z"/><path class="cls-4" d="M130.39,77a18.37,18.37,0,0,1,0,4.8,14.21,14.21,0,0,1-2.25,4.67,27.61,27.61,0,0,1-5.39,6.7A7,7,0,0,1,118,95a19.3,19.3,0,0,1-3.53-1L114,94c-3.2,3.92-6.34,7.86-9.6,11.73-3.75,4.43-7.21,9.83-6.57,15.61a2.34,2.34,0,0,0,.39,1.19c.66.82,2,.5,2.89,0,5.21-3,7-9.58,10.85-14.23,5.11-6.22,13.51-8.66,19.62-13.9a37.58,37.58,0,0,0,9-12.42c-1.12-2.37-2-5.15-3.89-6.84-1.72-1.49-4-1.92-6.29-2.39A35.08,35.08,0,0,0,130.39,77Z"/><path class="cls-5" d="M160,86.91c-5.39-5.12-10,.91-15.6-1-1.9-.63-2.95-2.22-3.83-4.06a37.58,37.58,0,0,1-9,12.42c-6.11,5.24-14.51,7.68-19.62,13.9-3.83,4.65-5.64,11.2-10.85,14.23-.91.53-2.23.85-2.89,0a2.34,2.34,0,0,1-.39-1.19c-.64-5.78,2.82-11.18,6.57-15.61,3.26-3.87,6.4-7.81,9.6-11.73,1.25-1.53,2.52-3.07,3.8-4.59a6.16,6.16,0,0,0,1.67-3A2.22,2.22,0,0,0,118,84a1.14,1.14,0,0,0-.33,0c-.95,0-1.67.84-2.57,1.16-2.41.87-4.5-2.17-7-2.5s-4.57,2.11-6,4.28l-6.15,9.35-5.27,8a110.34,110.34,0,0,0-8,13.48c-1.55,3.28-2.8,6.74-4.18,10.11a260.39,260.39,0,0,1,30.71,6,10.92,10.92,0,0,0,3.87.54c4.06-.44,6.1-5,7.47-8.84,2.1-5.89,4.56-11.76,8.49-16.62,6.83-8.45,18.14-12.83,28.9-11.84.31-2.82,3.21-2.52,4-5.36C162.54,89.59,161.42,88.27,160,86.91Z"/><path class="cls-4" d="M101.52,59.21c-1.79-1-3.64-1.78-5.56-1.28a12.69,12.69,0,0,0-3.7,2.12,12.69,12.69,0,0,1-8.73,2.23l-.25-.05c-.09,4.31.94,8.79,1.36,13.15a45,45,0,0,1-4.1,23.38c-.87-2.92.75-5.92,1.53-8.87C84,82.55,80.68,75,79.13,67.56a47.22,47.22,0,0,1-.93-6.91c-.48-.16-1-.31-1.44-.43-2.29-.59-5-.48-6.63,1.26-1.13,1.23-1.45,3-2.41,4.38A11.11,11.11,0,0,1,65,68.33a33.93,33.93,0,0,1-4.11,2.61,5.29,5.29,0,0,1,1.8.79l.15.14A7.11,7.11,0,0,1,64,73.19c2.92,3.91,4.48,5.76,5.56,10.74a32.59,32.59,0,0,1-.09,14.14c-.06.25-.11.5-.17.74A64.44,64.44,0,0,1,64,111.36c-2,3.91-4.12,7.72-6.07,11.6a6.09,6.09,0,0,0-.57,1.5,2.1,2.1,0,0,0,0,.9c.37,1.51,6.5.87,8,1q6.59.56,13.12,1.46c1.38-3.37,2.63-6.83,4.18-10.11a110.34,110.34,0,0,1,8-13.48l5.27-8c-1.49.22-2.75,0-3.36-1.17a3.85,3.85,0,0,1,.11-2.9,40.49,40.49,0,0,0,1.61-7.6A36.49,36.49,0,0,1,95,78.09a11.79,11.79,0,0,1,.56-1.54,14.3,14.3,0,0,1,1-7.23A45.91,45.91,0,0,1,101.52,59.21Z"/><path class="cls-6" d="M177.05,77.67c-1.36-7.65-5.72-14.58-11.44-19.84-2-1.79-4.09-3.44-5.56-5.64a24.44,24.44,0,0,1-2.49-5.39l-3.51-9.59a32.62,32.62,0,0,0-4.16-8.63c-1.7-2.26-4-4-5.88-6.11-2.88-3.11-5-6.88-7.72-10.1C126.82,1.3,110.5-1.72,96.17.87S68.86,10.74,55.94,17.48a50.37,50.37,0,0,0-9.52,5.85,25,25,0,0,0-3.54,3.73,28.24,28.24,0,0,0-5.67,15.65,35.41,35.41,0,0,0,6,20.87c.19.3.4.59.61.89a1.42,1.42,0,0,0,.68-.41,2.65,2.65,0,0,0,.43-1.86C44.66,56,42,49.48,44.65,43.89c2.39-5,8.27-7.28,13.74-8.2s11.26-1,16.16-3.64c4.44-2.35,7.8-6.59,12.55-8.22,7-2.41,14.42,1.54,21.26,4.45a78.77,78.77,0,0,0,19.58,5.48c3.72.55,7.77,1,10.5,3.53,4.08,3.85,3.49,10.91,7.48,14.86,1.57,1.57,3.69,2.44,5.51,3.71s3.47,3.22,3.28,5.43c-.16,1.79-1.46,3.24-2.26,4.84s-.91,4,.67,4.8a6.71,6.71,0,0,0,2.61.39c2.68.23,4.85,2.16,6.82,4,2.4,2.24,4.87,4.56,6.18,7.57,2.28,5.22.48,11.52-3.21,15.87l-.12.15a24,24,0,0,1-4.29,3.82,6.87,6.87,0,0,0,4.82.48,11.59,11.59,0,0,0,5.44-3.73C176.55,93.67,178.41,85.32,177.05,77.67Z"/><path class="cls-2" d="M168.73,82.87c-1.31-3-3.78-5.33-6.18-7.57-2-1.82-4.14-3.75-6.82-4a6.71,6.71,0,0,1-2.61-.39c-1.58-.84-1.48-3.2-.67-4.8s2.1-3,2.26-4.84c.19-2.21-1.46-4.17-3.28-5.43s-3.94-2.14-5.51-3.71c-4-3.95-3.4-11-7.48-14.86-2.73-2.58-6.78-3-10.5-3.53a78.77,78.77,0,0,1-19.58-5.48c-6.84-2.91-14.24-6.86-21.26-4.45C82.35,25.46,79,29.7,74.55,32.05c-4.9,2.6-10.68,2.71-16.16,3.64S47,38.88,44.65,43.89c-2.67,5.59,0,12.12.27,18.31a2.65,2.65,0,0,1-.43,1.86,1.42,1.42,0,0,1-.68.41A26,26,0,0,0,46,67.13c3.13,3.33,7.21,5.72,11.57,5a12,12,0,0,0,3.33-1.17A33.93,33.93,0,0,0,65,68.33a11.11,11.11,0,0,0,2.73-2.47c1-1.37,1.28-3.15,2.41-4.38,1.6-1.74,4.34-1.85,6.63-1.26.49.12,1,.27,1.44.43a34.28,34.28,0,0,0,5.08,1.58l.25.05a12.69,12.69,0,0,0,8.73-2.23A12.69,12.69,0,0,1,96,57.93c1.92-.5,3.77.27,5.56,1.28.86.49,1.7,1,2.53,1.52a25.27,25.27,0,0,0,14.26,3.4c1.42-.09,3.07-.22,4,.83.79.88.75,2.19,1.12,3.31a5.84,5.84,0,0,0,3.18,3.22,32.77,32.77,0,0,1,4.09-2.74c-.16,1.31-.29,2.61-.35,3.92,2.24.47,4.57.9,6.29,2.39,1.93,1.69,2.77,4.47,3.89,6.84.88,1.84,1.93,3.43,3.83,4.06,5.58,1.86,10.21-4.17,15.6,1,1.43,1.36,2.55,2.68,1.95,4.82-.79,2.84-3.69,2.54-4,5.36a5.5,5.5,0,0,0,0,1.15,5.6,5.6,0,0,0,3.17,4.47,24,24,0,0,0,4.29-3.82l.12-.15C169.21,94.39,171,88.09,168.73,82.87Z"/><path class="cls-5" d="M53.17,89.78c-3.2-6.47-6.41-12.93-9.94-19.21a8.53,8.53,0,0,1-2.79.89A332.46,332.46,0,0,1,58.62,104C57.73,99,55.43,94.35,53.17,89.78Z"/></g></g></svg>