<svg xmlns="http://www.w3.org/2000/svg" viewBox="0 0 150.52 146.93"><defs><style>.cls-1{fill:#f2f5e0;}.cls-2{fill:#439162;}.cls-3{fill:#377f51;}.cls-4{fill:#83d082;}.cls-5{fill:#92dd90;}.cls-6{fill:#aeeaac;}.cls-7{fill:#41a66a;}</style></defs><g id="Layer_2" data-name="Layer 2"><g id="Layer_1-2" data-name="Layer 1"><path class="cls-1" d="M44,138.08a15.08,15.08,0,0,1-10.15-.79,15.49,15.49,0,0,1-8-10.63,24.52,24.52,0,0,1,1.22-13.57c.73-2,1.66-4.26.78-6.21s-3.06-2.72-4.64-4.08c-2.65-2.28-3.45-6.26-2.57-9.67a17.08,17.08,0,0,1,5.89-8.5c.79-.66,1.61-1.26,2.45-1.84-.47-2-.23-4.39-.46-6.5-.46-4.27-3.15-7.9-4.9-11.82s-2.33-9.11.8-12C26.09,51,28.33,50.39,30,49.06a29.24,29.24,0,0,1-.47-4.17c0-.12,0-.24,0-.36-6.18,0-12.16,4.47-13.2,10.8C15.94,57.91,16,60.62,15,63,12.33,69.54,3.14,71.42.74,78a17.94,17.94,0,0,0-.74,6,23.67,23.67,0,0,0,.7,7.18c.86,2.75,2.73,5.16,3.13,8,.52,3.82-1.7,7.43-2.24,11.24-.47,3.38.54,7.09,3.14,9.26,2.14,1.79,5.09,2.39,7.13,4.29,2.34,2.19,3,5.61,4.59,8.4,2.84,5,8.64,7.8,14.34,8.2,2.19.15,4.39,0,6.56.29,6.06.82,11.94,5.05,17.78,3.24a11.9,11.9,0,0,0,4.43-2.7c-3.15-2.23-6.36-4.8-10.15-4.66A25.85,25.85,0,0,0,44,138.08Z"/><path class="cls-2" d="M44,137.05a15.2,15.2,0,0,1-10.15-.78,15.34,15.34,0,0,1-8-10.52,24,24,0,0,1,1.22-13.41c.73-2,1.66-4.21.78-6.15s-3.06-2.68-4.64-4c-2.65-2.25-3.45-6.19-2.57-9.56a17,17,0,0,1,5.89-8.42c.79-.64,1.61-1.24,2.45-1.81-.47-2-.23-4.34-.46-6.43-.46-4.22-3.15-7.82-4.9-11.69s-2.33-9,.8-11.89c1.59-1.46,3.83-2,5.53-3.35a28.53,28.53,0,0,1-.47-4.13c0-.12,0-.24,0-.35-6.18,0-12.16,4.42-13.2,10.68-.42,2.55-.35,5.23-1.35,7.62C12.33,69.26,3.14,71.13.74,77.67a17.56,17.56,0,0,0-.74,6,23.22,23.22,0,0,0,.7,7.11c.86,2.71,2.73,5.1,3.13,7.92.52,3.77-1.7,7.35-2.24,11.12a10.09,10.09,0,0,0,3.14,9.15c2.14,1.77,5.09,2.37,7.13,4.25,2.34,2.16,3,5.54,4.59,8.31,2.84,5,8.64,7.71,14.34,8.1,2.19.15,4.39,0,6.56.29,6.06.82,11.94,5,17.78,3.2a11.7,11.7,0,0,0,4.43-2.67c-3.15-2.2-6.36-4.75-10.15-4.6A26.46,26.46,0,0,0,44,137.05Z"/><path class="cls-3" d="M131.89,32.47c-3.79-3.46-8.34-6.26-11-10.61-3.63-5.81-3.58-13.79-8.6-18.44C108.5,0,102.79-.65,97.84.59s-9.33,4-13.64,6.75-8.78,5.42-13.78,6.43c-4.23.86-8.61.45-12.92.71S48.64,15.84,45.71,19c-2,2.22-3.07,5.23-5.15,7.42-1.75,1.84-4.11,3-6,4.68-3.66,3.3-5.13,8.47-5,13.41,0,.11,0,.23,0,.35A28.53,28.53,0,0,0,30,49a6,6,0,0,0,.55-.45c1.64-1.58,2.26-3.9,3.24-6,1.52-3.19,4.24-6,7.68-6.81,2.7-.64,5.62,0,8.27-.88,3.95-1.26,6.24-5.34,9.65-7.71a14.23,14.23,0,0,1,11.16-1.95,18.69,18.69,0,0,1,9.73,6.07c1.25,1.43,2.74,2.85,3.89,4.31,1.73,2.2,2.47,5.11,4.15,7.43a52.13,52.13,0,0,0,4.79,5.5,1.57,1.57,0,0,1,.75-.3,3.12,3.12,0,0,1,1.87.55,28.07,28.07,0,0,1,4.42,3.07,11.52,11.52,0,0,1,5.38-2.75,45.87,45.87,0,0,1,16.78-1.8A28.66,28.66,0,0,1,135.7,52c0-.15,0-.31.05-.46.39-2,1.51-3.72,2-5.67C138.93,40.92,135.67,35.93,131.89,32.47Z"/><path class="cls-1" d="M89.2,44.34a27,27,0,0,1,1.63-4.94,42.68,42.68,0,0,1,2.45-4.52c1.8-2.88,3.8-5.59,5.6-8.38a33.53,33.53,0,0,0,4.29-8.9,26.91,26.91,0,0,0,1-9.78.45.45,0,0,1,.41-.5.47.47,0,0,1,.5.41,27.94,27.94,0,0,1-.81,10.17A34.54,34.54,0,0,1,100,27.17c-1.79,2.88-3.74,5.62-5.44,8.47A41.38,41.38,0,0,0,92.24,40a25.32,25.32,0,0,0-1.44,4.63v0a.82.82,0,0,1-1.6-.33Z"/><path class="cls-1" d="M92.66,39.58a53.87,53.87,0,0,0,7.77.57,20,20,0,0,0,7.45-1.56,64.94,64.94,0,0,1,7.42-2.89,11.34,11.34,0,0,1,8.06.45.44.44,0,0,1,.2.61.46.46,0,0,1-.61.2,10.41,10.41,0,0,0-7.36-.21,67.15,67.15,0,0,0-7.23,3,22.83,22.83,0,0,1-3.84,1.3,22.16,22.16,0,0,1-4,.54,57.33,57.33,0,0,1-8-.39.82.82,0,0,1,.16-1.63Z"/><path class="cls-1" d="M99.94,28.6a23.19,23.19,0,0,0,4.78.06A10.31,10.31,0,0,0,109.1,27c1.35-.86,2.6-1.89,3.9-2.88a17.9,17.9,0,0,1,4.24-2.51.24.24,0,0,1,.3.14.24.24,0,0,1-.13.29,16.53,16.53,0,0,0-4.07,2.52c-1.27,1-2.51,2.06-3.89,3a11.06,11.06,0,0,1-4.63,1.84,23.32,23.32,0,0,1-4.94,0A.4.4,0,0,1,99.5,29a.4.4,0,0,1,.43-.38Z"/><path class="cls-1" d="M92.07,35.79A12.71,12.71,0,0,0,89.53,30a20.81,20.81,0,0,1-3.1-5.88,21.5,21.5,0,0,1-.82-6.61,60.34,60.34,0,0,1,.53-6.59.24.24,0,0,1,.25-.2.22.22,0,0,1,.2.25,60.18,60.18,0,0,0-.43,6.55A20.65,20.65,0,0,0,87,23.93a20.16,20.16,0,0,0,3.1,5.67,13.34,13.34,0,0,1,2.74,6.12.41.41,0,1,1-.81.08Z"/><path class="cls-1" d="M87.74,26.32a8.91,8.91,0,0,1,.17-4.81c.4-1.53,1-3,1.26-4.47a16.75,16.75,0,0,0-.67-9,.21.21,0,0,1,.13-.29.23.23,0,0,1,.29.13,17.19,17.19,0,0,1,.87,9.31c-.29,1.57-.82,3-1.18,4.53a8.07,8.07,0,0,0-.09,4.38.41.41,0,1,1-.77.26Z"/><path class="cls-1" d="M102.09,40.52a13.81,13.81,0,0,1,4-5.41,24.69,24.69,0,0,1,5.63-3.54.23.23,0,0,1,.2.41,23.87,23.87,0,0,0-5.41,3.61,13.16,13.16,0,0,0-3.63,5.21.4.4,0,0,1-.52.25.42.42,0,0,1-.25-.52Z"/><path class="cls-1" d="M112.17,38.93a7.9,7.9,0,0,0,3.6,4,19.34,19.34,0,0,0,5.29,1.86.23.23,0,0,1,.17.27.23.23,0,0,1-.26.18,19.71,19.71,0,0,1-5.5-1.75,8.61,8.61,0,0,1-4.06-4.21.4.4,0,0,1,.22-.53.41.41,0,0,1,.54.22Z"/><path class="cls-1" d="M117,35.47a2.1,2.1,0,0,1,.33-1.35,3.55,3.55,0,0,1,.89-.92,11.76,11.76,0,0,1,2.07-1.14q2.1-1,4.28-1.78a.21.21,0,0,1,.29.13.23.23,0,0,1-.13.29c-1.41.58-2.8,1.22-4.15,1.93a11.09,11.09,0,0,0-1.91,1.14,1.83,1.83,0,0,0-.86,1.6.41.41,0,0,1-.81.14v0Z"/><path class="cls-1" d="M88.8,43c-1.71-2.43-2.46-5.49-4.22-7.8-1.17-1.53-2.68-3-4-4.53a18.92,18.92,0,0,0-9.89-6.36A14.05,14.05,0,0,0,59.4,26.35c-3.46,2.48-5.78,6.76-9.8,8.08-2.69.89-5.66.26-8.41.93-3.49.86-6.25,3.79-7.8,7.14-1,2.16-1.62,4.6-3.29,6.25a6.2,6.2,0,0,1-.56.48c-1.72,1.38-4,2-5.62,3.52-3.18,3-2.59,8.41-.81,12.47s4.52,7.84,5,12.27c.23,2.19,0,4.67.47,6.75,1.17-.83,2.37-1.61,3.58-2.37.38-5.44,2.66-10.93,4.53-15.85.35-.92.92-2,1.87-2a1.2,1.2,0,0,1,.62.2,26,26,0,0,1,6.53-9.88A38.08,38.08,0,0,1,92.79,50a2.39,2.39,0,0,1,.87-1.27A55.76,55.76,0,0,1,88.8,43Z"/><path class="cls-4" d="M88.35,43.06c-1.68-2.32-2.42-5.23-4.15-7.43-1.15-1.46-2.64-2.88-3.89-4.31a18.69,18.69,0,0,0-9.73-6.07A14.23,14.23,0,0,0,59.42,27.2c-3.41,2.37-5.7,6.45-9.65,7.71-2.65.85-5.57.24-8.27.88-3.44.82-6.16,3.62-7.68,6.81-1,2.06-1.6,4.38-3.24,6A6,6,0,0,1,30,49c-1.7,1.31-3.94,1.89-5.53,3.35-3.13,2.88-2.55,8-.8,11.89s4.44,7.47,4.9,11.69c.23,2.09,0,4.45.46,6.43,1.15-.79,2.33-1.53,3.52-2.26C33,74.93,35.2,69.69,37,65c.35-.88.91-1.9,1.85-1.89a1.1,1.1,0,0,1,.61.19,24.78,24.78,0,0,1,6.42-9.43,38.44,38.44,0,0,1,46.36-4.11,2.31,2.31,0,0,1,.86-1.21A52.13,52.13,0,0,1,88.35,43.06Z"/><path class="cls-5" d="M67.43,44.11a39.09,39.09,0,0,0-21.51,9.77,24.78,24.78,0,0,0-6.42,9.43,1.89,1.89,0,0,1,.82,1.32,6.62,6.62,0,0,1-.27,2.25c-.68,3.18.15,5.85,2.67,7.68s5.13,3.4,5.59,6.65c.38,2.66-1.08,5.41-.33,8,1.1,3.75,5.91,4.75,8.74,7.43a10,10,0,0,1,1.09-.1c3-.06,6,1.43,9,1.15,5.59-.52,10.61-5.89,15.73-8a8.17,8.17,0,0,1,4.19-.61,8.47,8.47,0,0,1,1.21-3.56,13.07,13.07,0,0,1,.32-8.47c2.12-5.27,7.47-8.93,10.24-13.7C96,59.82,93,56.43,92.16,52.26a5,5,0,0,1,.12-2.49A39.06,39.06,0,0,0,67.43,44.11Z"/><path class="cls-6" d="M87.91,85.53c2.09-3.51,6.46-6,10.36-7.85a7.8,7.8,0,0,0,2.89-2,5.76,5.76,0,0,0,.92-4.1c-.29-3-1.82-5.68-3.61-8.23-2.77,4.77-8.12,8.43-10.24,13.7A13.07,13.07,0,0,0,87.91,85.53Z"/><path class="cls-6" d="M82.51,89.7c-5.12,2.09-10.14,7.46-15.73,8-3,.28-5.94-1.21-9-1.15a10,10,0,0,0-1.09.1,7.64,7.64,0,0,1,1.1,1.31c1.15,1.77,1.31,4,2,6,1.43,4.06,5,7,8.81,9,4.69,2.56,10.19,4.14,15.42,3.61a13.65,13.65,0,0,1,2.25-3.94c1.89-2.39,4.21-4.69,4.67-7.7.8-5.24-4.4-9.77-4.34-15.08,0-.25,0-.49.06-.73A8.17,8.17,0,0,0,82.51,89.7Z"/><path class="cls-1" d="M84.09,120.93a6.05,6.05,0,0,1,0-4.47c-5.23.53-10.73-1.07-15.42-3.66-3.77-2.09-7.38-5-8.81-9.13-.7-2-.86-4.25-2-6a7.28,7.28,0,0,0-1.1-1.31c-2.83-2.72-7.64-3.74-8.74-7.53-.75-2.61.71-5.4.33-8.09-.46-3.29-3.18-5-5.59-6.73s-3.35-4.55-2.67-7.78a6.76,6.76,0,0,0,.27-2.27,1.91,1.91,0,0,0-.82-1.34,1.1,1.1,0,0,0-.61-.19c-.94,0-1.5,1-1.85,1.91C35.2,69,33,74.34,32.58,79.58a19.08,19.08,0,0,0,.08,3.78c2.17,17.31,11,32.15,28,37.59a51.1,51.1,0,0,0,9.31,2A38.7,38.7,0,0,0,80,123a24.14,24.14,0,0,0,2.67-.5,21.4,21.4,0,0,0,3.64-1.24A11.81,11.81,0,0,1,84.09,120.93Z"/><path class="cls-7" d="M84.09,121a5.92,5.92,0,0,1,0-4.42c-5.23.53-10.73-1.05-15.42-3.61-3.77-2.06-7.38-5-8.81-9-.7-2-.86-4.2-2-6a7.64,7.64,0,0,0-1.1-1.31C53.89,94,49.08,93,48,89.2c-.75-2.58.71-5.33.33-8-.46-3.25-3.18-4.89-5.59-6.65s-3.35-4.5-2.67-7.68a6.62,6.62,0,0,0,.27-2.25,1.89,1.89,0,0,0-.82-1.32,1.1,1.1,0,0,0-.61-.19c-.94,0-1.5,1-1.85,1.89-1.84,4.68-4.08,9.92-4.46,15.1a18.69,18.69,0,0,0,.08,3.74c2.17,17.1,11,31.75,28,37.12a50.23,50.23,0,0,0,9.31,2A39.15,39.15,0,0,0,80,123a26.71,26.71,0,0,0,2.67-.5,22.23,22.23,0,0,0,3.64-1.22A13.77,13.77,0,0,1,84.09,121Z"/><path class="cls-1" d="M148.48,89.68a21.28,21.28,0,0,0,1.63-13.47,42.15,42.15,0,0,0-5-12.8,36.23,36.23,0,0,0-7.32-9.71,23.05,23.05,0,0,0-2.1-1.62,28.29,28.29,0,0,0-13.36-4.75,45.45,45.45,0,0,0-16.78,1.81,11.57,11.57,0,0,0-5.38,2.78C110.35,60.63,114,76.13,113.27,89.1c-.67,11.48-6,23-15.57,29.3a19.22,19.22,0,0,1-11.42,3.5,22.31,22.31,0,0,1-3.64,1.24,26.68,26.68,0,0,1-2.67.49,5.83,5.83,0,0,1,2.55,4.31c.47,3.27-.45,6.93,1.53,9.75a11.72,11.72,0,0,0,4.75,3.81,12.88,12.88,0,0,0,4.27,1.16c2.46.2,5.08-.3,7.3.79,2.71,1.34,3.86,2.86,7,1.4,2.62-1.22,4.52-3.82,5.84-6.31,1.94-3.64,3.44-7.81,6.83-10.11,2.62-1.79,5.94-2.13,9.1-2,3.66.11,7.47.72,10.89-.58a10.87,10.87,0,0,0,6.08-13.34c-1.09-3-3.57-5.55-4-8.74-.37-2.61.69-5.23,2.09-7.47S147.27,92,148.48,89.68Z"/><path class="cls-2" d="M148.48,89.32A20.93,20.93,0,0,0,150.11,76a41.63,41.63,0,0,0-5-12.69,35.8,35.8,0,0,0-7.32-9.62A25,25,0,0,0,135.7,52a28.66,28.66,0,0,0-13.36-4.7,45.87,45.87,0,0,0-16.78,1.8,11.52,11.52,0,0,0-5.38,2.75c10.17,8.63,13.85,24,13.09,36.87-.67,11.38-6,22.83-15.57,29.05a19.33,19.33,0,0,1-11.42,3.48,22.23,22.23,0,0,1-3.64,1.22A26.71,26.71,0,0,1,80,123a5.74,5.74,0,0,1,2.55,4.26c.47,3.24-.45,6.88,1.53,9.67a11.92,11.92,0,0,0,4.75,3.79,12.84,12.84,0,0,0,4.27,1.14c2.46.2,5.08-.3,7.3.79,2.71,1.32,3.86,2.83,7,1.39,2.62-1.22,4.52-3.8,5.84-6.27,1.94-3.6,3.44-7.73,6.83-10,2.62-1.77,5.94-2.11,9.1-2,3.66.11,7.47.71,10.89-.58a10.75,10.75,0,0,0,6.08-13.23c-1.09-3-3.57-5.49-4-8.66-.37-2.6.69-5.19,2.09-7.41S147.27,91.64,148.48,89.32Z"/><path class="cls-1" d="M84.05,137.77c-2-2.83-1.06-6.52-1.53-9.81A5.84,5.84,0,0,0,80,123.63a38.7,38.7,0,0,1-10-.07,50.27,50.27,0,0,1-9.31-2c-17-5.45-25.86-20.33-28-37.68a19.18,19.18,0,0,1-.08-3.79c-1.19.74-2.37,1.49-3.52,2.29-.84.58-1.66,1.19-2.45,1.84a17.23,17.23,0,0,0-5.89,8.54c-.88,3.42-.08,7.42,2.57,9.7,1.58,1.37,3.79,2.18,4.64,4.1s-.05,4.21-.78,6.24a24.65,24.65,0,0,0-1.22,13.61,15.55,15.55,0,0,0,8,10.67,15,15,0,0,0,10.15.79,25.85,25.85,0,0,1,5.37-1.26c3.79-.15,7,2.43,10.15,4.67l.86.61a27.5,27.5,0,0,0,12.81,4.93,19.83,19.83,0,0,0,15.57-5.23A11.87,11.87,0,0,1,84.05,137.77Z"/><path class="cls-3" d="M84.05,136.93c-2-2.79-1.06-6.43-1.53-9.67A5.74,5.74,0,0,0,80,123a39.15,39.15,0,0,1-10-.07,50.23,50.23,0,0,1-9.31-2c-17-5.37-25.86-20-28-37.12a18.69,18.69,0,0,1-.08-3.74c-1.19.73-2.37,1.47-3.52,2.26-.84.57-1.66,1.17-2.45,1.81a17,17,0,0,0-5.89,8.42c-.88,3.37-.08,7.31,2.57,9.56,1.58,1.35,3.79,2.14,4.64,4s-.05,4.16-.78,6.15a24,24,0,0,0-1.22,13.41,15.34,15.34,0,0,0,8,10.52,15.2,15.2,0,0,0,10.15.78,26.46,26.46,0,0,1,5.37-1.24c3.79-.15,7,2.4,10.15,4.6.29.21.57.41.86.6a27.72,27.72,0,0,0,12.81,4.86,20,20,0,0,0,15.57-5.15A11.92,11.92,0,0,1,84.05,136.93Z"/><path class="cls-1" d="M99.82,51.36a28.44,28.44,0,0,0-4.54-3.11,3.32,3.32,0,0,0-1.92-.55,1.76,1.76,0,0,0-.77.31,2.33,2.33,0,0,0-.88,1.22,5,5,0,0,0-.12,2.51c.88,4.2,3.93,7.62,6.48,11.18,1.83,2.57,3.41,5.22,3.71,8.29a5.74,5.74,0,0,1-1,4.13,8.06,8.06,0,0,1-3,2c-4,1.89-8.49,4.37-10.64,7.9A8.55,8.55,0,0,0,86,88.84c0,.25,0,.49-.06.74-.06,5.35,5.28,9.91,4.46,15.2-.48,3-2.86,5.35-4.8,7.75a13.81,13.81,0,0,0-2.31,4,5.81,5.81,0,0,0,0,4.45,14.34,14.34,0,0,0,2.25.32,20.09,20.09,0,0,0,11.72-3.51c9.81-6.26,15.31-17.8,16-29.27C114.05,75.55,110.27,60.05,99.82,51.36Z"/><path class="cls-4" d="M100.18,51.88a28.07,28.07,0,0,0-4.42-3.07,3.12,3.12,0,0,0-1.87-.55,1.57,1.57,0,0,0-.75.3,2.31,2.31,0,0,0-.86,1.21,5,5,0,0,0-.12,2.49c.86,4.17,3.83,7.56,6.31,11.1,1.79,2.55,3.32,5.18,3.61,8.23a5.76,5.76,0,0,1-.92,4.1,7.8,7.8,0,0,1-2.89,2C94.37,79.56,90,82,87.91,85.53a8.47,8.47,0,0,0-1.21,3.56c0,.24,0,.48-.06.73-.06,5.31,5.14,9.84,4.34,15.08-.46,3-2.78,5.31-4.67,7.7a13.65,13.65,0,0,0-2.25,3.94,5.92,5.92,0,0,0,0,4.42,13.77,13.77,0,0,0,2.19.32A19.33,19.33,0,0,0,97.7,117.8c9.55-6.22,14.9-17.67,15.57-29C114,75.89,110.35,60.51,100.18,51.88Z"/><path class="cls-1" d="M65.24,46a26.56,26.56,0,0,0-3.63,7.93,36.17,36.17,0,0,0-1.26,8.74A42.61,42.61,0,0,0,63.59,80h0a.44.44,0,0,1-.24.59.45.45,0,0,1-.59-.23,43.71,43.71,0,0,1-3.68-17.76,37.29,37.29,0,0,1,1.13-9.09,28,28,0,0,1,3.67-8.47.82.82,0,0,1,1.37.9Z"/><path class="cls-1" d="M114.87,93.82a29.51,29.51,0,0,0,3.46,6.4,19,19,0,0,0,5.19,5,22.15,22.15,0,0,0,6.75,2.67A67.84,67.84,0,0,0,137.6,109a.46.46,0,0,1-.1.91,68.35,68.35,0,0,1-7.47-1,23.4,23.4,0,0,1-7.17-2.64,20.6,20.6,0,0,1-5.7-5.18,31.15,31.15,0,0,1-3.8-6.65.82.82,0,0,1,1.5-.64Z"/><path class="cls-1" d="M48.47,115.48a20.35,20.35,0,0,1-6.91,6.24c-1.38.75-2.79,1.29-4.06,2a7.27,7.27,0,0,0-3,2.87.46.46,0,0,1-.82-.4A8.25,8.25,0,0,1,37,122.78c1.33-.82,2.73-1.41,4-2.17a18.78,18.78,0,0,0,6.19-6,.82.82,0,0,1,1.38.87Z"/><path class="cls-1" d="M20.75,90a10.26,10.26,0,0,1-5.21-2.5,30.58,30.58,0,0,1-3.77-4.07,24.09,24.09,0,0,0-3.65-3.82,8.57,8.57,0,0,0-4.65-2A.45.45,0,0,1,3,77.19a.46.46,0,0,1,.46-.43,9.49,9.49,0,0,1,5.27,2,25.1,25.1,0,0,1,4,3.87,29.35,29.35,0,0,0,3.71,3.76,8.82,8.82,0,0,0,4.49,2A.82.82,0,1,1,20.79,90h0Z"/><path class="cls-1" d="M50.14,49.1a34.4,34.4,0,0,0-5.65-10.83.46.46,0,0,1,.08-.64.45.45,0,0,1,.62.06,35.3,35.3,0,0,1,6.49,10.88.82.82,0,0,1-1.53.58A.43.43,0,0,0,50.14,49.1Z"/><path class="cls-1" d="M34,90.53a17.39,17.39,0,0,1,6.41-11.62A.46.46,0,0,1,41,79a.47.47,0,0,1-.06.63,16.11,16.11,0,0,0-5.36,11.06.82.82,0,0,1-.86.77.82.82,0,0,1-.78-.86A.43.43,0,0,0,34,90.53Z"/><path class="cls-1" d="M111.84,94.26a10.46,10.46,0,0,0-4.12-4.12,36.23,36.23,0,0,0-5.65-2.57,27.9,27.9,0,0,0-6-1.56,17.31,17.31,0,0,0-6.13.23h0a.46.46,0,0,1-.21-.89,18.29,18.29,0,0,1,6.47-.42,29.16,29.16,0,0,1,6.29,1.44,37.15,37.15,0,0,1,6,2.51,12,12,0,0,1,4.84,4.63.81.81,0,1,1-1.43.77Z"/><path class="cls-1" d="M112,71.28a28,28,0,0,1,14.4-17.1.45.45,0,0,1,.41.81,26.73,26.73,0,0,0-13.23,16.72A.82.82,0,0,1,112,71.3Z"/><path class="cls-1" d="M113.51,89.61a40.33,40.33,0,0,1,23.88-7.56.46.46,0,0,1,0,.91,39.11,39.11,0,0,0-22.91,8,.8.8,0,0,1-1.14-.15.81.81,0,0,1,.15-1.14Z"/><path class="cls-1" d="M121.94,84.3A6.75,6.75,0,0,1,123,79.79a22.86,22.86,0,0,1,2.87-3.51,14.81,14.81,0,0,0,2.55-3.55,31.48,31.48,0,0,0,1.62-4.12.23.23,0,0,1,.43.14A31.65,31.65,0,0,1,128.94,73a15.49,15.49,0,0,1-2.57,3.73,22,22,0,0,0-2.71,3.45,6,6,0,0,0-.92,4,.41.41,0,0,1-.8.14Z"/><path class="cls-1" d="M114.41,64.1a41.62,41.62,0,0,1-.25-7.66,14.43,14.43,0,0,1,2.46-7.26.24.24,0,0,1,.32,0,.22.22,0,0,1,0,.31,14,14,0,0,0-2.2,7.05,41.48,41.48,0,0,0,.43,7.53.42.42,0,0,1-.36.45.41.41,0,0,1-.45-.36Z"/><path class="cls-1" d="M120,60.51a48.46,48.46,0,0,0,9.16,1.91,17.32,17.32,0,0,0,9.07-1.49.22.22,0,0,1,.3.1.23.23,0,0,1-.1.31,17.78,17.78,0,0,1-9.31,1.71,48.77,48.77,0,0,1-9.33-1.75.42.42,0,0,1-.3-.5.41.41,0,0,1,.5-.29Z"/><path class="cls-1" d="M132.33,82.15a8,8,0,0,1,1.31-3.23,20.74,20.74,0,0,1,2-2.77,21.28,21.28,0,0,1,5.11-4.4.22.22,0,0,1,.31.07.23.23,0,0,1-.07.31,20.65,20.65,0,0,0-6.69,7.15,7.55,7.55,0,0,0-1.13,2.93h0a.41.41,0,0,1-.82,0Z"/><path class="cls-1" d="M130.18,84.26a16,16,0,0,0,8.85,6.3.23.23,0,0,1-.12.44,16.71,16.71,0,0,1-9.4-6.26.42.42,0,0,1,.09-.58.41.41,0,0,1,.57.09Z"/><path class="cls-1" d="M119.83,100.64a17.5,17.5,0,0,1,7.75-1.28,29.83,29.83,0,0,1,7.67,1.47.23.23,0,1,1-.14.44,28.63,28.63,0,0,0-7.55-1.27,16.94,16.94,0,0,0-7.4,1.38.41.41,0,0,1-.34-.74Z"/><path class="cls-1" d="M127.21,108.17a6.14,6.14,0,0,1,1,4,12.66,12.66,0,0,0,0,1.92,2,2,0,0,0,.91,1.4,10.2,10.2,0,0,1,2.88,2.83,5.37,5.37,0,0,1,.84,4,.23.23,0,0,1-.27.18.23.23,0,0,1-.17-.27,5,5,0,0,0-.85-3.58,10,10,0,0,0-2.81-2.61,3.47,3.47,0,0,1-.79-.75,2.52,2.52,0,0,1-.41-1.06,11.46,11.46,0,0,1,0-2,5.48,5.48,0,0,0-.94-3.5.4.4,0,0,1,.06-.57.39.39,0,0,1,.57.06Z"/><path class="cls-1" d="M109.63,107.62a5.81,5.81,0,0,0,.78,4.33c.74,1.38,1.78,2.64,2.52,4.12a8.23,8.23,0,0,1,.82,4.85,23.6,23.6,0,0,1-1.16,4.72.23.23,0,0,1-.29.15.24.24,0,0,1-.14-.29,22.87,22.87,0,0,0,1-4.64,7.61,7.61,0,0,0-.84-4.5c-.73-1.39-1.78-2.61-2.59-4.06a6.53,6.53,0,0,1-.94-4.9.41.41,0,0,1,.79.21Z"/><path class="cls-1" d="M97.57,119.41c-.29,3.09-.57,6.18-.57,9.27a31.61,31.61,0,0,0,1.22,9.13.23.23,0,0,1-.44.14,32,32,0,0,1-1.41-9.26c-.07-3.13.16-6.25.39-9.35a.41.41,0,0,1,.44-.38.42.42,0,0,1,.38.44Z"/><path class="cls-1" d="M111.05,114.16a26.11,26.11,0,0,0-2,17.27.23.23,0,0,1-.17.27.22.22,0,0,1-.27-.16,26.71,26.71,0,0,1,1.65-17.73.42.42,0,0,1,.55-.2.4.4,0,0,1,.19.54Z"/><path class="cls-1" d="M109.55,110.13a2,2,0,0,1,1.46,0,3.82,3.82,0,0,1,1.16.63,9.72,9.72,0,0,1,1.76,1.75,10,10,0,0,1,2,4.47.24.24,0,0,1-.19.27.24.24,0,0,1-.26-.18,9.52,9.52,0,0,0-2-4.16,9,9,0,0,0-1.7-1.56,1.92,1.92,0,0,0-1.84-.44.41.41,0,0,1-.39-.72h0Z"/><path class="cls-1" d="M97.54,123.42a13.5,13.5,0,0,0,5.61,7.88.24.24,0,0,1,.06.32.23.23,0,0,1-.31.07,14.15,14.15,0,0,1-6.15-8.06.41.41,0,0,1,.78-.23Z"/><path class="cls-1" d="M66,124.33c-.56,1.14-1.14,2.29-1.82,3.39a13.58,13.58,0,0,1-2.49,3,7.09,7.09,0,0,0-1.25,1.33,3.79,3.79,0,0,0-.54,1.67c-.13,1.21.11,2.48.1,3.78a.23.23,0,1,1-.45,0c0-1.25-.3-2.51-.2-3.84a4.38,4.38,0,0,1,.59-1.94,7.88,7.88,0,0,1,1.32-1.48,19.06,19.06,0,0,0,4-6.28.4.4,0,0,1,.54-.2.41.41,0,0,1,.2.54Z"/><path class="cls-1" d="M47.33,118.61a15.61,15.61,0,0,0-2.85,8.26.22.22,0,0,1-.24.21.22.22,0,0,1-.21-.23,16.23,16.23,0,0,1,2.63-8.7.41.41,0,1,1,.68.45Z"/><path class="cls-1" d="M43.17,119.75a15.09,15.09,0,0,1-8.36-5.63.23.23,0,0,1,0-.32.23.23,0,0,1,.31,0A14.45,14.45,0,0,0,43.36,119a.4.4,0,0,1,.31.48.43.43,0,0,1-.49.32Z"/><path class="cls-1" d="M34.43,95a10.8,10.8,0,0,1-11.2-4,.22.22,0,0,1,.05-.32.22.22,0,0,1,.31,0,10.16,10.16,0,0,0,10.62,3.45.4.4,0,0,1,.5.28.39.39,0,0,1-.27.5Z"/><path class="cls-1" d="M18.07,87.62a22.91,22.91,0,0,0-7.76-15.86.23.23,0,0,1,.29-.35,23.53,23.53,0,0,1,8.29,16.16.42.42,0,0,1-.38.44.43.43,0,0,1-.44-.38Z"/><path class="cls-1" d="M49.67,50.17a6.57,6.57,0,0,1-3.13-.64l-2.77-1.24L38.24,45.8a.23.23,0,0,1-.11-.3.24.24,0,0,1,.3-.12L44,47.71l2.79,1.15a5.84,5.84,0,0,0,2.77.5.4.4,0,0,1,.45.35.41.41,0,0,1-.35.46Z"/><path class="cls-1" d="M52.51,47.14a31.5,31.5,0,0,0,.4-11,.23.23,0,0,1,.19-.26.25.25,0,0,1,.26.19,32.32,32.32,0,0,1,0,11.27.41.41,0,1,1-.8-.15Z"/><path class="cls-1" d="M69.72,43a26.52,26.52,0,0,0,2.4-14.72.22.22,0,0,1,.19-.25.23.23,0,0,1,.26.19,27.16,27.16,0,0,1-2.11,15.13.41.41,0,0,1-.74-.34Z"/><path class="cls-1" d="M17,80.92a11.32,11.32,0,0,0,1-5.7,23.5,23.5,0,0,0-1.19-5.84.23.23,0,0,1,.14-.29.24.24,0,0,1,.29.14,24.48,24.48,0,0,1,1.4,5.94,12.09,12.09,0,0,1-.91,6.1.41.41,0,1,1-.74-.33Z"/><path class="cls-1" d="M19.5,90.65A24.28,24.28,0,0,1,6.43,99.12.24.24,0,0,1,6.15,99a.23.23,0,0,1,.17-.27,23.68,23.68,0,0,0,12.54-8.53.41.41,0,1,1,.65.49Z"/><path class="cls-1" d="M62,54.63A37.38,37.38,0,0,0,80.24,69.69a.22.22,0,1,1-.16.42,38,38,0,0,1-18.76-15,.41.41,0,0,1,.13-.56.4.4,0,0,1,.56.12Z"/><path class="cls-1" d="M69.18,43.53a19.71,19.71,0,0,1-1.36-11.48.23.23,0,0,1,.27-.18.23.23,0,0,1,.18.26,19,19,0,0,0,1.65,11,.41.41,0,1,1-.73.36Z"/><path class="cls-1" d="M59.86,64.93a19.7,19.7,0,0,0-9.27,11.42.22.22,0,0,1-.28.15.24.24,0,0,1-.16-.28,20.42,20.42,0,0,1,9.3-12,.42.42,0,0,1,.56.15.4.4,0,0,1-.15.56Z"/><path class="cls-1" d="M59.33,57.41a6,6,0,0,0-4.08-.21,8.82,8.82,0,0,0-3.66,2.11c-2.1,2-3.32,4.76-4.49,7.45a.23.23,0,0,1-.3.12.22.22,0,0,1-.12-.29,42.31,42.31,0,0,1,1.84-4.07,15.21,15.21,0,0,1,2.62-3.66,9.52,9.52,0,0,1,3.91-2.36,6.77,6.77,0,0,1,4.61.16.41.41,0,0,1-.32.76Z"/><path class="cls-1" d="M77.3,45.08A12,12,0,0,0,79.38,50a51.69,51.69,0,0,0,3.36,4.33,23.64,23.64,0,0,0,4,3.71,11.69,11.69,0,0,0,4.93,2.1.23.23,0,0,1,.19.26.23.23,0,0,1-.26.19,12.17,12.17,0,0,1-5.17-2.11,23.68,23.68,0,0,1-4.14-3.73,50.45,50.45,0,0,1-3.48-4.34,12.82,12.82,0,0,1-2.29-5.16.41.41,0,0,1,.34-.47.42.42,0,0,1,.47.34Z"/><path class="cls-1" d="M71.39,63.3a14.87,14.87,0,0,0,10.23,0,.25.25,0,0,1,.3.13.23.23,0,0,1-.13.29,15.53,15.53,0,0,1-10.67.36.41.41,0,0,1-.26-.52.42.42,0,0,1,.52-.26Z"/><path class="cls-1" d="M42.65,108.08A12.32,12.32,0,0,1,52,100.65a.23.23,0,0,1,.26.19.23.23,0,0,1-.19.26,11.68,11.68,0,0,0-8.64,7.28.4.4,0,1,1-.76-.28Z"/><path class="cls-1" d="M61.57,59.81A51.42,51.42,0,0,1,66.83,77.7a.23.23,0,0,1-.21.25.21.21,0,0,1-.24-.19,51.08,51.08,0,0,0-5.53-17.57.41.41,0,1,1,.72-.38Z"/><path class="cls-1" d="M42,107.56a5.27,5.27,0,0,1-.8-4.3,17.88,17.88,0,0,1,1.5-4,10.37,10.37,0,0,0,1.1-3.89,21.2,21.2,0,0,0-.31-4.11.22.22,0,0,1,.19-.25.23.23,0,0,1,.26.19,21.59,21.59,0,0,1,.4,4.2,10.82,10.82,0,0,1-1.06,4.12,17.92,17.92,0,0,0-1.37,3.85,4.52,4.52,0,0,0,.72,3.65.41.41,0,1,1-.62.53Z"/><path class="cls-1" d="M46.08,105.91c2.16,1.07,3.81,2.75,5.66,4.06a11.41,11.41,0,0,0,3,1.56,6,6,0,0,0,3.27.22.23.23,0,0,1,.28.17.23.23,0,0,1-.17.27,6.36,6.36,0,0,1-3.54-.14,12.31,12.31,0,0,1-3.17-1.56c-1.94-1.31-3.63-2.91-5.65-3.84a.41.41,0,0,1,.34-.75Z"/><path class="cls-1" d="M108.34,104c-1-.75-2.51-.44-3.84,0l-4.14,1.34a22.16,22.16,0,0,1-4.3,1,5.77,5.77,0,0,1-4.31-1,.24.24,0,0,1,0-.33.24.24,0,0,1,.32,0,5.25,5.25,0,0,0,4,.81,22.68,22.68,0,0,0,4.17-1l4.11-1.43a9.36,9.36,0,0,1,2.21-.5,3.45,3.45,0,0,1,2.34.57.41.41,0,1,1-.48.66Z"/><path class="cls-1" d="M108.08,92.12c-1.26.52-2.52,1.08-3.83,1.55a17.35,17.35,0,0,1-4.07,1,39.46,39.46,0,0,1-8.28-.23.23.23,0,0,1-.2-.25.22.22,0,0,1,.24-.2,39.07,39.07,0,0,0,8.16,0,16.46,16.46,0,0,0,3.9-1c1.26-.48,2.49-1.07,3.76-1.62a.41.41,0,1,1,.33.75Z"/></g></g></svg>