<svg width="20" height="18" viewBox="0 0 20 18" fill="none" xmlns="http://www.w3.org/2000/svg">
<path d="M19.25 5.72009C19.25 6.88009 18.81 8.05009 17.92 8.94009L16.44 10.4201L10.07 16.7901C10.04 16.8201 10.03 16.8301 10 16.8501C9.97 16.8301 9.96 16.8201 9.93 16.7901L2.08 8.94009C1.19 8.05009 0.75 6.89009 0.75 5.72009C0.75 4.55009 1.19 3.3801 2.08 2.4901C3.86 0.720098 6.74 0.720098 8.52 2.4901L9.99 3.97009L11.47 2.4901C13.25 0.720098 16.12 0.720098 17.9 2.4901C18.81 3.3801 19.25 4.54009 19.25 5.72009Z" stroke="#474747" stroke-width="1.5" stroke-linecap="round" stroke-linejoin="round"/>
</svg>
