<svg width="22" height="19" viewBox="0 0 22 19" fill="none" xmlns="http://www.w3.org/2000/svg">
<path d="M15.7942 7.27766L15.9426 7.50002H16.21H21C21.2662 7.50002 21.4873 7.71365 21.4995 7.97709L21.4774 8.17577L18.9492 17.4027C18.949 17.4035 18.9488 17.4043 18.9485 17.4051C18.7667 18.0374 18.1875 18.5 17.5 18.5H4.5C3.81066 18.5 3.23418 18.0359 3.06225 17.408L3.06223 17.4079L0.522225 8.13789L0.518636 8.12479L0.514342 8.11191C0.505876 8.08651 0.5 8.05281 0.5 8.00002C0.5 7.72616 0.726142 7.50002 1 7.50002H5.79H6.05714L6.20563 7.27796L10.5856 0.727955L10.5857 0.727968L10.5882 0.724032C10.6717 0.596655 10.821 0.52002 11 0.52002C11.1803 0.52002 11.3323 0.59801 11.4154 0.719559C11.4157 0.719962 11.416 0.720366 11.4163 0.72077L15.7942 7.27766ZM11.416 2.52267L11 1.89863L10.584 2.52267L7.78397 6.72267L7.26574 7.50002H8.2H13.8H14.7343L14.216 6.72267L11.416 2.52267ZM17.5004 17.5L17.8811 17.4997L17.9821 17.1326L20.1821 9.1326L20.3561 8.50002H19.7H2.31H1.65416L1.82785 9.13244L4.02786 17.1424L4.12889 17.5103L4.51039 17.51L17.5004 17.5ZM9.5 13C9.5 12.1762 10.1761 11.5 11 11.5C11.8239 11.5 12.5 12.1762 12.5 13C12.5 13.8239 11.8239 14.5 11 14.5C10.1761 14.5 9.5 13.8239 9.5 13Z" fill="#474747" stroke="#474747"/>
</svg>
