<svg width="600" height="64" viewBox="0 0 600 64" fill="none" xmlns="http://www.w3.org/2000/svg">
<g clip-path="url(#clip0_300_14935)">
<path d="M203.989 32.2298C203.989 31.2235 203.907 30.4891 203.73 29.7276H192.239V34.2696H198.984C198.848 35.3984 198.114 37.0982 196.482 38.2405L196.459 38.3925L200.093 41.2072L200.344 41.2323C202.656 39.0973 203.989 35.9559 203.989 32.2298Z" fill="#4285F4"/>
<path d="M192.239 44.1969C195.544 44.1969 198.318 43.1089 200.344 41.2323L196.482 38.2405C195.449 38.9612 194.061 39.4644 192.239 39.4644C189.003 39.4644 186.256 37.3294 185.277 34.3784L185.133 34.3906L181.355 37.3144L181.306 37.4518C183.318 41.4498 187.452 44.1969 192.239 44.1969Z" fill="#34A853"/>
<path d="M185.276 34.3784C185.018 33.6169 184.868 32.8009 184.868 31.9578C184.868 31.1146 185.018 30.2987 185.263 29.5372L185.256 29.375L181.431 26.4042L181.305 26.4638C180.476 28.1229 180 29.986 180 31.9578C180 33.9296 180.476 35.7926 181.305 37.4517L185.276 34.3784Z" fill="#FBBC05"/>
<path d="M192.239 24.4512C194.537 24.4512 196.088 25.4439 196.972 26.2735L200.426 22.9009C198.304 20.9291 195.544 19.7188 192.239 19.7188C187.452 19.7188 183.318 22.4657 181.306 26.4638L185.263 29.5372C186.256 26.5862 189.003 24.4512 192.239 24.4512Z" fill="#EB4335"/>
</g>
<path d="M220.84 31.8C220.84 30.9333 220.987 30.0867 221.28 29.26C221.587 28.42 222.027 27.66 222.6 26.98C223.173 26.2867 223.88 25.74 224.72 25.34C225.56 24.9267 226.513 24.72 227.58 24.72C228.847 24.72 229.927 25.0133 230.82 25.6C231.727 26.1733 232.393 26.9133 232.82 27.82L231.72 28.5C231.413 27.8733 231.027 27.38 230.56 27.02C230.093 26.6467 229.593 26.38 229.06 26.22C228.54 26.06 228.02 25.98 227.5 25.98C226.647 25.98 225.893 26.1533 225.24 26.5C224.587 26.8333 224.033 27.2867 223.58 27.86C223.14 28.42 222.807 29.0533 222.58 29.76C222.353 30.4533 222.24 31.16 222.24 31.88C222.24 32.6667 222.373 33.42 222.64 34.14C222.907 34.86 223.28 35.5 223.76 36.06C224.24 36.6067 224.8 37.0467 225.44 37.38C226.093 37.7 226.8 37.86 227.56 37.86C228.093 37.86 228.64 37.7667 229.2 37.58C229.76 37.3933 230.28 37.1067 230.76 36.72C231.253 36.3333 231.647 35.8333 231.94 35.22L233.1 35.82C232.807 36.5267 232.353 37.1267 231.74 37.62C231.127 38.1133 230.44 38.4867 229.68 38.74C228.933 38.9933 228.2 39.12 227.48 39.12C226.507 39.12 225.613 38.9133 224.8 38.5C223.987 38.0733 223.28 37.5133 222.68 36.82C222.093 36.1133 221.64 35.3267 221.32 34.46C221 33.58 220.84 32.6933 220.84 31.8ZM239.651 39.2C238.904 39.2 238.211 39.06 237.571 38.78C236.944 38.4867 236.398 38.0933 235.931 37.6C235.478 37.0933 235.124 36.52 234.871 35.88C234.618 35.2267 234.491 34.54 234.491 33.82C234.491 33.0733 234.618 32.38 234.871 31.74C235.124 31.0867 235.484 30.5133 235.951 30.02C236.418 29.5133 236.964 29.12 237.591 28.84C238.231 28.5467 238.924 28.4 239.671 28.4C240.418 28.4 241.104 28.5467 241.731 28.84C242.358 29.12 242.904 29.5133 243.371 30.02C243.838 30.5133 244.198 31.0867 244.451 31.74C244.704 32.38 244.831 33.0733 244.831 33.82C244.831 34.54 244.704 35.2267 244.451 35.88C244.198 36.52 243.838 37.0933 243.371 37.6C242.918 38.0933 242.371 38.4867 241.731 38.78C241.104 39.06 240.411 39.2 239.651 39.2ZM235.871 33.84C235.871 34.6133 236.038 35.32 236.371 35.96C236.718 36.5867 237.178 37.0867 237.751 37.46C238.324 37.82 238.958 38 239.651 38C240.344 38 240.978 37.8133 241.551 37.44C242.124 37.0667 242.584 36.56 242.931 35.92C243.278 35.2667 243.451 34.56 243.451 33.8C243.451 33.0267 243.278 32.32 242.931 31.68C242.584 31.04 242.124 30.5333 241.551 30.16C240.978 29.7867 240.344 29.6 239.651 29.6C238.958 29.6 238.324 29.7933 237.751 30.18C237.191 30.5667 236.738 31.08 236.391 31.72C236.044 32.3467 235.871 33.0533 235.871 33.84ZM255.865 39H254.505V33.18C254.505 31.9533 254.325 31.06 253.965 30.5C253.605 29.9267 253.039 29.64 252.265 29.64C251.732 29.64 251.205 29.7733 250.685 30.04C250.165 30.2933 249.705 30.6467 249.305 31.1C248.919 31.54 248.639 32.0467 248.465 32.62V39H247.105V28.58H248.345V30.94C248.625 30.4333 248.992 29.9933 249.445 29.62C249.899 29.2333 250.412 28.9333 250.985 28.72C251.559 28.5067 252.152 28.4 252.765 28.4C253.339 28.4 253.825 28.5067 254.225 28.72C254.625 28.9333 254.945 29.24 255.185 29.64C255.425 30.0267 255.599 30.5 255.705 31.06C255.812 31.6067 255.865 32.22 255.865 32.9V39ZM263.668 38.5C263.561 38.54 263.395 38.6133 263.168 38.72C262.941 38.8267 262.668 38.92 262.348 39C262.028 39.08 261.681 39.12 261.308 39.12C260.921 39.12 260.555 39.0467 260.208 38.9C259.875 38.7533 259.608 38.5333 259.408 38.24C259.208 37.9333 259.108 37.56 259.108 37.12V29.66H257.668V28.58H259.108V25.06H260.468V28.58H262.868V29.66H260.468V36.74C260.495 37.1133 260.628 37.3933 260.868 37.58C261.121 37.7667 261.408 37.86 261.728 37.86C262.101 37.86 262.441 37.8 262.748 37.68C263.055 37.5467 263.241 37.4533 263.308 37.4L263.668 38.5ZM265.367 39V28.58H266.727V39H265.367ZM265.367 26.4V24.4H266.727V26.4H265.367ZM278.483 39H277.123V33.18C277.123 31.9533 276.943 31.06 276.583 30.5C276.223 29.9267 275.656 29.64 274.883 29.64C274.349 29.64 273.823 29.7733 273.303 30.04C272.783 30.2933 272.323 30.6467 271.923 31.1C271.536 31.54 271.256 32.0467 271.083 32.62V39H269.723V28.58H270.963V30.94C271.243 30.4333 271.609 29.9933 272.063 29.62C272.516 29.2333 273.029 28.9333 273.603 28.72C274.176 28.5067 274.769 28.4 275.383 28.4C275.956 28.4 276.443 28.5067 276.843 28.72C277.243 28.9333 277.563 29.24 277.803 29.64C278.043 30.0267 278.216 30.5 278.323 31.06C278.429 31.6067 278.483 32.22 278.483 32.9V39ZM281.283 34.7V28.58H282.643V34.46C282.643 35.6467 282.843 36.5333 283.243 37.12C283.656 37.7067 284.263 38 285.063 38C285.596 38 286.109 37.8867 286.603 37.66C287.109 37.42 287.556 37.0867 287.943 36.66C288.329 36.22 288.623 35.7133 288.823 35.14V28.58H290.183V37.36C290.183 37.5467 290.223 37.6867 290.303 37.78C290.383 37.86 290.503 37.9067 290.663 37.92V39C290.503 39.0133 290.376 39.02 290.283 39.02C290.189 39.0333 290.103 39.04 290.023 39.04C289.756 39.0133 289.523 38.9067 289.323 38.72C289.136 38.5333 289.036 38.3067 289.023 38.04L288.983 36.64C288.529 37.44 287.909 38.0667 287.123 38.52C286.349 38.9733 285.509 39.2 284.603 39.2C283.509 39.2 282.683 38.82 282.123 38.06C281.563 37.3 281.283 36.18 281.283 34.7ZM297.758 39.2C297.011 39.2 296.318 39.06 295.678 38.78C295.038 38.4867 294.484 38.0933 294.018 37.6C293.551 37.0933 293.184 36.5133 292.918 35.86C292.664 35.2067 292.538 34.5067 292.538 33.76C292.538 32.7867 292.758 31.8933 293.198 31.08C293.651 30.2667 294.271 29.62 295.058 29.14C295.844 28.6467 296.738 28.4 297.738 28.4C298.764 28.4 299.658 28.6467 300.418 29.14C301.191 29.6333 301.798 30.2867 302.238 31.1C302.678 31.9 302.898 32.78 302.898 33.74C302.898 33.8467 302.898 33.9533 302.898 34.06C302.898 34.1533 302.891 34.2267 302.878 34.28H293.958C294.024 35.0267 294.231 35.6933 294.578 36.28C294.938 36.8533 295.398 37.3133 295.958 37.66C296.531 37.9933 297.151 38.16 297.818 38.16C298.498 38.16 299.138 37.9867 299.738 37.64C300.351 37.2933 300.778 36.84 301.018 36.28L302.198 36.6C301.984 37.0933 301.658 37.54 301.218 37.94C300.778 38.34 300.258 38.6533 299.658 38.88C299.071 39.0933 298.438 39.2 297.758 39.2ZM293.918 33.3H301.618C301.564 32.54 301.358 31.8733 300.998 31.3C300.651 30.7267 300.191 30.28 299.618 29.96C299.058 29.6267 298.438 29.46 297.758 29.46C297.078 29.46 296.458 29.6267 295.898 29.96C295.338 30.28 294.878 30.7333 294.518 31.32C294.171 31.8933 293.971 32.5533 293.918 33.3ZM322.647 28.58H323.987L319.507 39H318.327L316.147 33.82L313.987 39H312.807L308.327 28.58H309.647L313.447 37.6L315.367 32.9L313.607 28.6H314.827L316.147 31.98L317.487 28.6H318.687L316.947 32.9L318.867 37.6L322.647 28.58ZM325.797 39V28.58H327.157V39H325.797ZM325.797 26.4V24.4H327.157V26.4H325.797ZM335.152 38.5C335.046 38.54 334.879 38.6133 334.652 38.72C334.426 38.8267 334.152 38.92 333.832 39C333.512 39.08 333.166 39.12 332.792 39.12C332.406 39.12 332.039 39.0467 331.692 38.9C331.359 38.7533 331.092 38.5333 330.892 38.24C330.692 37.9333 330.592 37.56 330.592 37.12V29.66H329.152V28.58H330.592V25.06H331.952V28.58H334.352V29.66H331.952V36.74C331.979 37.1133 332.112 37.3933 332.352 37.58C332.606 37.7667 332.892 37.86 333.212 37.86C333.586 37.86 333.926 37.8 334.232 37.68C334.539 37.5467 334.726 37.4533 334.792 37.4L335.152 38.5ZM345.612 39H344.252V33.18C344.252 32.0067 344.045 31.1267 343.632 30.54C343.218 29.94 342.625 29.64 341.852 29.64C341.345 29.64 340.838 29.7733 340.332 30.04C339.838 30.2933 339.398 30.6467 339.012 31.1C338.638 31.54 338.372 32.0467 338.212 32.62V39H336.852V24.4H338.212V30.94C338.625 30.1667 339.198 29.5533 339.932 29.1C340.678 28.6333 341.472 28.4 342.312 28.4C342.912 28.4 343.418 28.5067 343.832 28.72C344.258 28.9333 344.598 29.2467 344.852 29.66C345.118 30.06 345.312 30.5333 345.432 31.08C345.552 31.6133 345.612 32.22 345.612 32.9V39ZM359.589 39.1C358.643 39.1 357.763 38.9 356.949 38.5C356.136 38.0867 355.429 37.5333 354.829 36.84C354.229 36.1467 353.763 35.3733 353.429 34.52C353.109 33.6667 352.949 32.7867 352.949 31.88C352.949 30.92 353.109 30.0133 353.429 29.16C353.763 28.2933 354.223 27.5267 354.809 26.86C355.396 26.1933 356.089 25.6667 356.889 25.28C357.689 24.8933 358.563 24.7 359.509 24.7C360.909 24.7 362.049 24.9867 362.929 25.56C363.809 26.1333 364.476 26.88 364.929 27.8L363.849 28.52C363.396 27.64 362.789 26.9933 362.029 26.58C361.269 26.1667 360.423 25.96 359.489 25.96C358.703 25.96 357.989 26.1267 357.349 26.46C356.723 26.7933 356.183 27.24 355.729 27.8C355.276 28.36 354.929 28.9933 354.689 29.7C354.463 30.4067 354.349 31.14 354.349 31.9C354.349 32.7 354.483 33.46 354.749 34.18C355.016 34.8867 355.396 35.52 355.889 36.08C356.383 36.6267 356.949 37.06 357.589 37.38C358.243 37.6867 358.943 37.84 359.689 37.84C360.556 37.84 361.376 37.6267 362.149 37.2C362.923 36.76 363.663 36.0867 364.369 35.18V36.66C363.023 38.2867 361.429 39.1 359.589 39.1ZM364.149 33.1H360.989V32.02H365.329V39H364.149V33.1ZM372.366 39.2C371.619 39.2 370.926 39.06 370.286 38.78C369.659 38.4867 369.112 38.0933 368.646 37.6C368.192 37.0933 367.839 36.52 367.586 35.88C367.332 35.2267 367.206 34.54 367.206 33.82C367.206 33.0733 367.332 32.38 367.586 31.74C367.839 31.0867 368.199 30.5133 368.666 30.02C369.132 29.5133 369.679 29.12 370.306 28.84C370.946 28.5467 371.639 28.4 372.386 28.4C373.132 28.4 373.819 28.5467 374.446 28.84C375.072 29.12 375.619 29.5133 376.086 30.02C376.552 30.5133 376.912 31.0867 377.166 31.74C377.419 32.38 377.546 33.0733 377.546 33.82C377.546 34.54 377.419 35.2267 377.166 35.88C376.912 36.52 376.552 37.0933 376.086 37.6C375.632 38.0933 375.086 38.4867 374.446 38.78C373.819 39.06 373.126 39.2 372.366 39.2ZM368.586 33.84C368.586 34.6133 368.752 35.32 369.086 35.96C369.432 36.5867 369.892 37.0867 370.466 37.46C371.039 37.82 371.672 38 372.366 38C373.059 38 373.692 37.8133 374.266 37.44C374.839 37.0667 375.299 36.56 375.646 35.92C375.992 35.2667 376.166 34.56 376.166 33.8C376.166 33.0267 375.992 32.32 375.646 31.68C375.299 31.04 374.839 30.5333 374.266 30.16C373.692 29.7867 373.059 29.6 372.366 29.6C371.672 29.6 371.039 29.7933 370.466 30.18C369.906 30.5667 369.452 31.08 369.106 31.72C368.759 32.3467 368.586 33.0533 368.586 33.84ZM384.26 39.2C383.514 39.2 382.82 39.06 382.18 38.78C381.554 38.4867 381.007 38.0933 380.54 37.6C380.087 37.0933 379.734 36.52 379.48 35.88C379.227 35.2267 379.1 34.54 379.1 33.82C379.1 33.0733 379.227 32.38 379.48 31.74C379.734 31.0867 380.094 30.5133 380.56 30.02C381.027 29.5133 381.574 29.12 382.2 28.84C382.84 28.5467 383.534 28.4 384.28 28.4C385.027 28.4 385.714 28.5467 386.34 28.84C386.967 29.12 387.514 29.5133 387.98 30.02C388.447 30.5133 388.807 31.0867 389.06 31.74C389.314 32.38 389.44 33.0733 389.44 33.82C389.44 34.54 389.314 35.2267 389.06 35.88C388.807 36.52 388.447 37.0933 387.98 37.6C387.527 38.0933 386.98 38.4867 386.34 38.78C385.714 39.06 385.02 39.2 384.26 39.2ZM380.48 33.84C380.48 34.6133 380.647 35.32 380.98 35.96C381.327 36.5867 381.787 37.0867 382.36 37.46C382.934 37.82 383.567 38 384.26 38C384.954 38 385.587 37.8133 386.16 37.44C386.734 37.0667 387.194 36.56 387.54 35.92C387.887 35.2667 388.06 34.56 388.06 33.8C388.06 33.0267 387.887 32.32 387.54 31.68C387.194 31.04 386.734 30.5333 386.16 30.16C385.587 29.7867 384.954 29.6 384.26 29.6C383.567 29.6 382.934 29.7933 382.36 30.18C381.8 30.5667 381.347 31.08 381 31.72C380.654 32.3467 380.48 33.0533 380.48 33.84ZM395.895 39.14C395.188 39.14 394.535 38.9933 393.935 38.7C393.335 38.4067 392.815 38.0133 392.375 37.52C391.948 37.0133 391.615 36.44 391.375 35.8C391.135 35.16 391.015 34.5 391.015 33.82C391.015 33.0867 391.128 32.4 391.355 31.76C391.595 31.1067 391.928 30.5267 392.355 30.02C392.795 29.5133 393.308 29.12 393.895 28.84C394.482 28.5467 395.135 28.4 395.855 28.4C396.748 28.4 397.522 28.6267 398.175 29.08C398.842 29.5333 399.402 30.0933 399.855 30.76V28.58H401.075V39.04C401.075 40 400.842 40.8067 400.375 41.46C399.922 42.1267 399.302 42.6267 398.515 42.96C397.742 43.2933 396.895 43.46 395.975 43.46C394.788 43.46 393.828 43.2467 393.095 42.82C392.362 42.3933 391.762 41.82 391.295 41.1L392.135 40.44C392.548 41.0933 393.095 41.58 393.775 41.9C394.468 42.22 395.202 42.38 395.975 42.38C396.655 42.38 397.275 42.2533 397.835 42C398.408 41.76 398.862 41.3933 399.195 40.9C399.542 40.4067 399.715 39.7867 399.715 39.04V36.98C399.315 37.6333 398.768 38.16 398.075 38.56C397.382 38.9467 396.655 39.14 395.895 39.14ZM396.275 38C396.688 38 397.082 37.9267 397.455 37.78C397.842 37.6333 398.195 37.44 398.515 37.2C398.835 36.9467 399.102 36.6667 399.315 36.36C399.528 36.0533 399.662 35.74 399.715 35.42V32.2C399.515 31.6933 399.228 31.2467 398.855 30.86C398.482 30.46 398.055 30.1533 397.575 29.94C397.108 29.7133 396.622 29.6 396.115 29.6C395.528 29.6 395.002 29.7267 394.535 29.98C394.082 30.22 393.695 30.5467 393.375 30.96C393.068 31.36 392.828 31.8133 392.655 32.32C392.482 32.8267 392.395 33.3333 392.395 33.84C392.395 34.4 392.495 34.9333 392.695 35.44C392.895 35.9333 393.168 36.38 393.515 36.78C393.875 37.1667 394.288 37.4667 394.755 37.68C395.235 37.8933 395.742 38 396.275 38ZM404.138 24.4H405.498V36.64C405.498 37.16 405.591 37.5 405.778 37.66C405.965 37.82 406.191 37.9 406.458 37.9C406.698 37.9 406.938 37.8733 407.178 37.82C407.418 37.7667 407.625 37.7133 407.798 37.66L408.038 38.76C407.785 38.8667 407.471 38.9533 407.098 39.02C406.738 39.0867 406.425 39.12 406.158 39.12C405.545 39.12 405.051 38.94 404.678 38.58C404.318 38.22 404.138 37.7267 404.138 37.1V24.4ZM414.027 39.2C413.281 39.2 412.587 39.06 411.947 38.78C411.307 38.4867 410.754 38.0933 410.287 37.6C409.821 37.0933 409.454 36.5133 409.187 35.86C408.934 35.2067 408.807 34.5067 408.807 33.76C408.807 32.7867 409.027 31.8933 409.467 31.08C409.921 30.2667 410.541 29.62 411.327 29.14C412.114 28.6467 413.007 28.4 414.007 28.4C415.034 28.4 415.927 28.6467 416.687 29.14C417.461 29.6333 418.067 30.2867 418.507 31.1C418.947 31.9 419.167 32.78 419.167 33.74C419.167 33.8467 419.167 33.9533 419.167 34.06C419.167 34.1533 419.161 34.2267 419.147 34.28H410.227C410.294 35.0267 410.501 35.6933 410.847 36.28C411.207 36.8533 411.667 37.3133 412.227 37.66C412.801 37.9933 413.421 38.16 414.087 38.16C414.767 38.16 415.407 37.9867 416.007 37.64C416.621 37.2933 417.047 36.84 417.287 36.28L418.467 36.6C418.254 37.0933 417.927 37.54 417.487 37.94C417.047 38.34 416.527 38.6533 415.927 38.88C415.341 39.0933 414.707 39.2 414.027 39.2ZM410.187 33.3H417.887C417.834 32.54 417.627 31.8733 417.267 31.3C416.921 30.7267 416.461 30.28 415.887 29.96C415.327 29.6267 414.707 29.46 414.027 29.46C413.347 29.46 412.727 29.6267 412.167 29.96C411.607 30.28 411.147 30.7333 410.787 31.32C410.441 31.8933 410.241 32.5533 410.187 33.3Z" fill="#838383"/>
<rect x="0.25" y="0.25" width="599.5" height="63.5" rx="3.75" stroke="#9C9C9C" stroke-width="0.5"/>
<defs>
<clipPath id="clip0_300_14935">
<rect width="24" height="24.5625" fill="white" transform="translate(180 19.7188)"/>
</clipPath>
</defs>
</svg>
