<svg width="600" height="64" viewBox="0 0 600 64" fill="none" xmlns="http://www.w3.org/2000/svg">
<g clip-path="url(#clip0_432_21801)">
<path d="M210.489 32.2297C210.489 31.2234 210.407 30.4891 210.23 29.7275H198.739V34.2695H205.484C205.348 35.3983 204.614 37.0982 202.982 38.2404L202.959 38.3925L206.592 41.2071L206.844 41.2323C209.156 39.0972 210.489 35.9558 210.489 32.2297Z" fill="#4285F4"/>
<path d="M198.739 44.1969C202.044 44.1969 204.818 43.1089 206.844 41.2323L202.982 38.2404C201.948 38.9612 200.561 39.4644 198.739 39.4644C195.502 39.4644 192.756 37.3294 191.776 34.3784L191.633 34.3906L187.855 37.3144L187.805 37.4517C189.818 41.4498 193.952 44.1969 198.739 44.1969Z" fill="#34A853"/>
<path d="M191.776 34.3785C191.518 33.617 191.368 32.801 191.368 31.9579C191.368 31.1147 191.518 30.2988 191.763 29.5372L191.756 29.375L187.931 26.4043L187.805 26.4638C186.976 28.1229 186.5 29.986 186.5 31.9579C186.5 33.9297 186.976 35.7927 187.805 37.4518L191.776 34.3785Z" fill="#FBBC05"/>
<path d="M198.739 24.4512C201.037 24.4512 202.587 25.4439 203.471 26.2735L206.926 22.9009C204.804 20.9291 202.044 19.7188 198.739 19.7188C193.952 19.7188 189.818 22.4657 187.805 26.4638L191.763 29.5372C192.756 26.5862 195.502 24.4512 198.739 24.4512Z" fill="#EB4335"/>
</g>
<path d="M236.58 27.46C236.38 27.2333 236.147 27.0333 235.88 26.86C235.613 26.6733 235.313 26.5133 234.98 26.38C234.647 26.2467 234.287 26.14 233.9 26.06C233.527 25.98 233.127 25.94 232.7 25.94C231.46 25.94 230.547 26.18 229.96 26.66C229.387 27.1267 229.1 27.7667 229.1 28.58C229.1 29.14 229.233 29.58 229.5 29.9C229.78 30.22 230.213 30.48 230.8 30.68C231.387 30.88 232.133 31.0867 233.04 31.3C234.053 31.5133 234.927 31.7667 235.66 32.06C236.393 32.3533 236.96 32.7533 237.36 33.26C237.76 33.7533 237.96 34.4267 237.96 35.28C237.96 35.9333 237.833 36.5 237.58 36.98C237.327 37.46 236.973 37.86 236.52 38.18C236.067 38.5 235.527 38.74 234.9 38.9C234.273 39.0467 233.587 39.12 232.84 39.12C232.107 39.12 231.4 39.0467 230.72 38.9C230.053 38.74 229.42 38.5133 228.82 38.22C228.22 37.9133 227.66 37.5267 227.14 37.06L227.84 35.92C228.093 36.1867 228.393 36.44 228.74 36.68C229.1 36.9067 229.493 37.1133 229.92 37.3C230.36 37.4867 230.827 37.6333 231.32 37.74C231.827 37.8333 232.347 37.88 232.88 37.88C234.013 37.88 234.893 37.6733 235.52 37.26C236.16 36.8467 236.48 36.2333 236.48 35.42C236.48 34.8333 236.32 34.3667 236 34.02C235.68 33.66 235.2 33.3667 234.56 33.14C233.92 32.9133 233.133 32.6933 232.2 32.48C231.213 32.2533 230.38 32 229.7 31.72C229.02 31.44 228.507 31.0733 228.16 30.62C227.827 30.1533 227.66 29.54 227.66 28.78C227.66 27.9 227.873 27.16 228.3 26.56C228.74 25.9467 229.34 25.4867 230.1 25.18C230.86 24.86 231.733 24.7 232.72 24.7C233.347 24.7 233.927 24.7667 234.46 24.9C235.007 25.02 235.507 25.2 235.96 25.44C236.427 25.68 236.86 25.98 237.26 26.34L236.58 27.46ZM240.148 39V28.58H241.508V39H240.148ZM240.148 26.4V24.4H241.508V26.4H240.148ZM248.684 39.14C247.977 39.14 247.324 38.9933 246.724 38.7C246.124 38.4067 245.604 38.0133 245.164 37.52C244.737 37.0133 244.404 36.44 244.164 35.8C243.924 35.16 243.804 34.5 243.804 33.82C243.804 33.0867 243.917 32.4 244.144 31.76C244.384 31.1067 244.717 30.5267 245.144 30.02C245.584 29.5133 246.097 29.12 246.684 28.84C247.271 28.5467 247.924 28.4 248.644 28.4C249.537 28.4 250.311 28.6267 250.964 29.08C251.631 29.5333 252.191 30.0933 252.644 30.76V28.58H253.864V39.04C253.864 40 253.631 40.8067 253.164 41.46C252.711 42.1267 252.091 42.6267 251.304 42.96C250.531 43.2933 249.684 43.46 248.764 43.46C247.577 43.46 246.617 43.2467 245.884 42.82C245.151 42.3933 244.551 41.82 244.084 41.1L244.924 40.44C245.337 41.0933 245.884 41.58 246.564 41.9C247.257 42.22 247.991 42.38 248.764 42.38C249.444 42.38 250.064 42.2533 250.624 42C251.197 41.76 251.651 41.3933 251.984 40.9C252.331 40.4067 252.504 39.7867 252.504 39.04V36.98C252.104 37.6333 251.557 38.16 250.864 38.56C250.171 38.9467 249.444 39.14 248.684 39.14ZM249.064 38C249.477 38 249.871 37.9267 250.244 37.78C250.631 37.6333 250.984 37.44 251.304 37.2C251.624 36.9467 251.891 36.6667 252.104 36.36C252.317 36.0533 252.451 35.74 252.504 35.42V32.2C252.304 31.6933 252.017 31.2467 251.644 30.86C251.271 30.46 250.844 30.1533 250.364 29.94C249.897 29.7133 249.411 29.6 248.904 29.6C248.317 29.6 247.791 29.7267 247.324 29.98C246.871 30.22 246.484 30.5467 246.164 30.96C245.857 31.36 245.617 31.8133 245.444 32.32C245.271 32.8267 245.184 33.3333 245.184 33.84C245.184 34.4 245.284 34.9333 245.484 35.44C245.684 35.9333 245.957 36.38 246.304 36.78C246.664 37.1667 247.077 37.4667 247.544 37.68C248.024 37.8933 248.531 38 249.064 38ZM265.627 39H264.267V33.18C264.267 31.9533 264.087 31.06 263.727 30.5C263.367 29.9267 262.801 29.64 262.027 29.64C261.494 29.64 260.967 29.7733 260.447 30.04C259.927 30.2933 259.467 30.6467 259.067 31.1C258.681 31.54 258.401 32.0467 258.227 32.62V39H256.867V28.58H258.107V30.94C258.387 30.4333 258.754 29.9933 259.207 29.62C259.661 29.2333 260.174 28.9333 260.747 28.72C261.321 28.5067 261.914 28.4 262.527 28.4C263.101 28.4 263.587 28.5067 263.987 28.72C264.387 28.9333 264.707 29.24 264.947 29.64C265.187 30.0267 265.361 30.5 265.467 31.06C265.574 31.6067 265.627 32.22 265.627 32.9V39ZM273.525 34.7V28.58H274.885V34.46C274.885 35.6467 275.085 36.5333 275.485 37.12C275.898 37.7067 276.505 38 277.305 38C277.838 38 278.352 37.8867 278.845 37.66C279.352 37.42 279.798 37.0867 280.185 36.66C280.572 36.22 280.865 35.7133 281.065 35.14V28.58H282.425V37.36C282.425 37.5467 282.465 37.6867 282.545 37.78C282.625 37.86 282.745 37.9067 282.905 37.92V39C282.745 39.0133 282.618 39.02 282.525 39.02C282.432 39.0333 282.345 39.04 282.265 39.04C281.998 39.0133 281.765 38.9067 281.565 38.72C281.378 38.5333 281.278 38.3067 281.265 38.04L281.225 36.64C280.772 37.44 280.152 38.0667 279.365 38.52C278.592 38.9733 277.752 39.2 276.845 39.2C275.752 39.2 274.925 38.82 274.365 38.06C273.805 37.3 273.525 36.18 273.525 34.7ZM290.82 39.2C289.953 39.2 289.173 38.9733 288.48 38.52C287.8 38.0667 287.26 37.5067 286.86 36.84V43.26H285.5V28.58H286.72V30.6C287.133 29.9467 287.687 29.42 288.38 29.02C289.073 28.6067 289.813 28.4 290.6 28.4C291.32 28.4 291.98 28.5533 292.58 28.86C293.18 29.1533 293.7 29.5533 294.14 30.06C294.58 30.5667 294.92 31.1467 295.16 31.8C295.413 32.44 295.54 33.1067 295.54 33.8C295.54 34.7733 295.34 35.6733 294.94 36.5C294.553 37.3133 294.007 37.9667 293.3 38.46C292.593 38.9533 291.767 39.2 290.82 39.2ZM290.44 38C291.013 38 291.527 37.8867 291.98 37.66C292.433 37.42 292.82 37.1 293.14 36.7C293.473 36.3 293.727 35.8533 293.9 35.36C294.073 34.8533 294.16 34.3333 294.16 33.8C294.16 33.24 294.06 32.7067 293.86 32.2C293.673 31.6933 293.4 31.2467 293.04 30.86C292.68 30.4733 292.267 30.1667 291.8 29.94C291.333 29.7133 290.827 29.6 290.28 29.6C289.933 29.6 289.573 29.6667 289.2 29.8C288.827 29.9333 288.467 30.1267 288.12 30.38C287.787 30.62 287.507 30.8933 287.28 31.2C287.053 31.5067 286.913 31.8333 286.86 32.18V35.38C287.073 35.8733 287.36 36.32 287.72 36.72C288.08 37.1067 288.493 37.42 288.96 37.66C289.44 37.8867 289.933 38 290.44 38ZM315.495 28.58H316.835L312.355 39H311.175L308.995 33.82L306.835 39H305.655L301.175 28.58H302.495L306.295 37.6L308.215 32.9L306.455 28.6H307.675L308.995 31.98L310.335 28.6H311.535L309.795 32.9L311.715 37.6L315.495 28.58ZM318.645 39V28.58H320.005V39H318.645ZM318.645 26.4V24.4H320.005V26.4H318.645ZM328 38.5C327.893 38.54 327.727 38.6133 327.5 38.72C327.273 38.8267 327 38.92 326.68 39C326.36 39.08 326.013 39.12 325.64 39.12C325.253 39.12 324.887 39.0467 324.54 38.9C324.207 38.7533 323.94 38.5333 323.74 38.24C323.54 37.9333 323.44 37.56 323.44 37.12V29.66H322V28.58H323.44V25.06H324.8V28.58H327.2V29.66H324.8V36.74C324.827 37.1133 324.96 37.3933 325.2 37.58C325.453 37.7667 325.74 37.86 326.06 37.86C326.433 37.86 326.773 37.8 327.08 37.68C327.387 37.5467 327.573 37.4533 327.64 37.4L328 38.5ZM338.459 39H337.099V33.18C337.099 32.0067 336.893 31.1267 336.479 30.54C336.066 29.94 335.473 29.64 334.699 29.64C334.193 29.64 333.686 29.7733 333.179 30.04C332.686 30.2933 332.246 30.6467 331.859 31.1C331.486 31.54 331.219 32.0467 331.059 32.62V39H329.699V24.4H331.059V30.94C331.473 30.1667 332.046 29.5533 332.779 29.1C333.526 28.6333 334.319 28.4 335.159 28.4C335.759 28.4 336.266 28.5067 336.679 28.72C337.106 28.9333 337.446 29.2467 337.699 29.66C337.966 30.06 338.159 30.5333 338.279 31.08C338.399 31.6133 338.459 32.22 338.459 32.9V39ZM352.437 39.1C351.49 39.1 350.61 38.9 349.797 38.5C348.984 38.0867 348.277 37.5333 347.677 36.84C347.077 36.1467 346.61 35.3733 346.277 34.52C345.957 33.6667 345.797 32.7867 345.797 31.88C345.797 30.92 345.957 30.0133 346.277 29.16C346.61 28.2933 347.07 27.5267 347.657 26.86C348.244 26.1933 348.937 25.6667 349.737 25.28C350.537 24.8933 351.41 24.7 352.357 24.7C353.757 24.7 354.897 24.9867 355.777 25.56C356.657 26.1333 357.324 26.88 357.777 27.8L356.697 28.52C356.244 27.64 355.637 26.9933 354.877 26.58C354.117 26.1667 353.27 25.96 352.337 25.96C351.55 25.96 350.837 26.1267 350.197 26.46C349.57 26.7933 349.03 27.24 348.577 27.8C348.124 28.36 347.777 28.9933 347.537 29.7C347.31 30.4067 347.197 31.14 347.197 31.9C347.197 32.7 347.33 33.46 347.597 34.18C347.864 34.8867 348.244 35.52 348.737 36.08C349.23 36.6267 349.797 37.06 350.437 37.38C351.09 37.6867 351.79 37.84 352.537 37.84C353.404 37.84 354.224 37.6267 354.997 37.2C355.77 36.76 356.51 36.0867 357.217 35.18V36.66C355.87 38.2867 354.277 39.1 352.437 39.1ZM356.997 33.1H353.837V32.02H358.177V39H356.997V33.1ZM365.213 39.2C364.467 39.2 363.773 39.06 363.133 38.78C362.507 38.4867 361.96 38.0933 361.493 37.6C361.04 37.0933 360.687 36.52 360.433 35.88C360.18 35.2267 360.053 34.54 360.053 33.82C360.053 33.0733 360.18 32.38 360.433 31.74C360.687 31.0867 361.047 30.5133 361.513 30.02C361.98 29.5133 362.527 29.12 363.153 28.84C363.793 28.5467 364.487 28.4 365.233 28.4C365.98 28.4 366.667 28.5467 367.293 28.84C367.92 29.12 368.467 29.5133 368.933 30.02C369.4 30.5133 369.76 31.0867 370.013 31.74C370.267 32.38 370.393 33.0733 370.393 33.82C370.393 34.54 370.267 35.2267 370.013 35.88C369.76 36.52 369.4 37.0933 368.933 37.6C368.48 38.0933 367.933 38.4867 367.293 38.78C366.667 39.06 365.973 39.2 365.213 39.2ZM361.433 33.84C361.433 34.6133 361.6 35.32 361.933 35.96C362.28 36.5867 362.74 37.0867 363.313 37.46C363.887 37.82 364.52 38 365.213 38C365.907 38 366.54 37.8133 367.113 37.44C367.687 37.0667 368.147 36.56 368.493 35.92C368.84 35.2667 369.013 34.56 369.013 33.8C369.013 33.0267 368.84 32.32 368.493 31.68C368.147 31.04 367.687 30.5333 367.113 30.16C366.54 29.7867 365.907 29.6 365.213 29.6C364.52 29.6 363.887 29.7933 363.313 30.18C362.753 30.5667 362.3 31.08 361.953 31.72C361.607 32.3467 361.433 33.0533 361.433 33.84ZM377.108 39.2C376.361 39.2 375.668 39.06 375.028 38.78C374.401 38.4867 373.855 38.0933 373.388 37.6C372.935 37.0933 372.581 36.52 372.328 35.88C372.075 35.2267 371.948 34.54 371.948 33.82C371.948 33.0733 372.075 32.38 372.328 31.74C372.581 31.0867 372.941 30.5133 373.408 30.02C373.875 29.5133 374.421 29.12 375.048 28.84C375.688 28.5467 376.381 28.4 377.128 28.4C377.875 28.4 378.561 28.5467 379.188 28.84C379.815 29.12 380.361 29.5133 380.828 30.02C381.295 30.5133 381.655 31.0867 381.908 31.74C382.161 32.38 382.288 33.0733 382.288 33.82C382.288 34.54 382.161 35.2267 381.908 35.88C381.655 36.52 381.295 37.0933 380.828 37.6C380.375 38.0933 379.828 38.4867 379.188 38.78C378.561 39.06 377.868 39.2 377.108 39.2ZM373.328 33.84C373.328 34.6133 373.495 35.32 373.828 35.96C374.175 36.5867 374.635 37.0867 375.208 37.46C375.781 37.82 376.415 38 377.108 38C377.801 38 378.435 37.8133 379.008 37.44C379.581 37.0667 380.041 36.56 380.388 35.92C380.735 35.2667 380.908 34.56 380.908 33.8C380.908 33.0267 380.735 32.32 380.388 31.68C380.041 31.04 379.581 30.5333 379.008 30.16C378.435 29.7867 377.801 29.6 377.108 29.6C376.415 29.6 375.781 29.7933 375.208 30.18C374.648 30.5667 374.195 31.08 373.848 31.72C373.501 32.3467 373.328 33.0533 373.328 33.84ZM388.743 39.14C388.036 39.14 387.383 38.9933 386.783 38.7C386.183 38.4067 385.663 38.0133 385.223 37.52C384.796 37.0133 384.463 36.44 384.223 35.8C383.983 35.16 383.863 34.5 383.863 33.82C383.863 33.0867 383.976 32.4 384.203 31.76C384.443 31.1067 384.776 30.5267 385.203 30.02C385.643 29.5133 386.156 29.12 386.743 28.84C387.329 28.5467 387.983 28.4 388.703 28.4C389.596 28.4 390.369 28.6267 391.023 29.08C391.689 29.5333 392.249 30.0933 392.703 30.76V28.58H393.923V39.04C393.923 40 393.689 40.8067 393.223 41.46C392.769 42.1267 392.149 42.6267 391.363 42.96C390.589 43.2933 389.743 43.46 388.823 43.46C387.636 43.46 386.676 43.2467 385.943 42.82C385.209 42.3933 384.609 41.82 384.143 41.1L384.983 40.44C385.396 41.0933 385.943 41.58 386.623 41.9C387.316 42.22 388.049 42.38 388.823 42.38C389.503 42.38 390.123 42.2533 390.683 42C391.256 41.76 391.709 41.3933 392.043 40.9C392.389 40.4067 392.563 39.7867 392.563 39.04V36.98C392.163 37.6333 391.616 38.16 390.923 38.56C390.229 38.9467 389.503 39.14 388.743 39.14ZM389.123 38C389.536 38 389.929 37.9267 390.303 37.78C390.689 37.6333 391.043 37.44 391.363 37.2C391.683 36.9467 391.949 36.6667 392.163 36.36C392.376 36.0533 392.509 35.74 392.563 35.42V32.2C392.363 31.6933 392.076 31.2467 391.703 30.86C391.329 30.46 390.903 30.1533 390.423 29.94C389.956 29.7133 389.469 29.6 388.963 29.6C388.376 29.6 387.849 29.7267 387.383 29.98C386.929 30.22 386.543 30.5467 386.223 30.96C385.916 31.36 385.676 31.8133 385.503 32.32C385.329 32.8267 385.243 33.3333 385.243 33.84C385.243 34.4 385.343 34.9333 385.543 35.44C385.743 35.9333 386.016 36.38 386.363 36.78C386.723 37.1667 387.136 37.4667 387.603 37.68C388.083 37.8933 388.589 38 389.123 38ZM396.986 24.4H398.346V36.64C398.346 37.16 398.439 37.5 398.626 37.66C398.812 37.82 399.039 37.9 399.306 37.9C399.546 37.9 399.786 37.8733 400.026 37.82C400.266 37.7667 400.472 37.7133 400.646 37.66L400.886 38.76C400.632 38.8667 400.319 38.9533 399.946 39.02C399.586 39.0867 399.272 39.12 399.006 39.12C398.392 39.12 397.899 38.94 397.526 38.58C397.166 38.22 396.986 37.7267 396.986 37.1V24.4ZM406.875 39.2C406.128 39.2 405.435 39.06 404.795 38.78C404.155 38.4867 403.602 38.0933 403.135 37.6C402.668 37.0933 402.302 36.5133 402.035 35.86C401.782 35.2067 401.655 34.5067 401.655 33.76C401.655 32.7867 401.875 31.8933 402.315 31.08C402.768 30.2667 403.388 29.62 404.175 29.14C404.962 28.6467 405.855 28.4 406.855 28.4C407.882 28.4 408.775 28.6467 409.535 29.14C410.308 29.6333 410.915 30.2867 411.355 31.1C411.795 31.9 412.015 32.78 412.015 33.74C412.015 33.8467 412.015 33.9533 412.015 34.06C412.015 34.1533 412.008 34.2267 411.995 34.28H403.075C403.142 35.0267 403.348 35.6933 403.695 36.28C404.055 36.8533 404.515 37.3133 405.075 37.66C405.648 37.9933 406.268 38.16 406.935 38.16C407.615 38.16 408.255 37.9867 408.855 37.64C409.468 37.2933 409.895 36.84 410.135 36.28L411.315 36.6C411.102 37.0933 410.775 37.54 410.335 37.94C409.895 38.34 409.375 38.6533 408.775 38.88C408.188 39.0933 407.555 39.2 406.875 39.2ZM403.035 33.3H410.735C410.682 32.54 410.475 31.8733 410.115 31.3C409.768 30.7267 409.308 30.28 408.735 29.96C408.175 29.6267 407.555 29.46 406.875 29.46C406.195 29.46 405.575 29.6267 405.015 29.96C404.455 30.28 403.995 30.7333 403.635 31.32C403.288 31.8933 403.088 32.5533 403.035 33.3Z" fill="#232323"/>
<rect x="0.25" y="0.25" width="599.5" height="63.5" rx="3.75" stroke="#9C9C9C" stroke-width="0.5"/>
<defs>
<clipPath id="clip0_432_21801">
<rect width="24" height="24.5625" fill="white" transform="translate(186.5 19.7188)"/>
</clipPath>
</defs>
</svg>
